<?xml version="1.0" encoding="UTF-8"?>
<svg width="30px" height="203px" viewBox="0 0 30 203" version="1.1" xmlns="http://www.w3.org/2000/svg" xmlns:xlink="http://www.w3.org/1999/xlink">
    <!-- Generator: Sketch 45 (43475) - http://www.bohemiancoding.com/sketch -->
    <title>logs_spritesheet</title>
    <desc>Created with Sketch.</desc>
    <defs></defs>
    <g id="Page-1" stroke="none" stroke-width="1" fill="none" fill-rule="evenodd">
        <g id="logs_spritesheet">
            <path d="M15.3889675,78.4950495 L14.4384724,78.0876945 C14.2121641,77.9971711 14.0311174,77.8161245 13.9179632,77.5898161 L13.9179632,77.5445545 C13.8274399,77.2956153 13.8274399,77.0240453 13.9179632,76.7977369 L14.3026874,75.8472419 C14.5063649,75.5304102 14.4384724,75.1230552 14.1895332,74.874116 L13.125884,73.8104668 C12.8769448,73.5615276 12.4695898,73.5162659 12.175389,73.6973126 L11.2022631,74.0820368 C10.6817539,74.2857143 10.115983,74.0367751 9.91230552,73.5388967 L9.5049505,72.6110325 C9.43705799,72.2489392 9.12022631,72 8.75813296,72 L8.75813296,72 L7.24186704,72 L7.24186704,72 C6.87977369,72 6.56294201,72.2489392 6.4950495,72.5884017 L6.08769448,73.5388967 C5.86138614,74.0367751 5.29561528,74.2630835 4.79773692,74.0820368 L3.84724187,73.6973126 C3.55304102,73.4936351 3.145686,73.5388967 2.87411598,73.8104668 L1.81046676,74.874116 C1.56152758,75.1230552 1.51626591,75.5304102 1.69731259,75.824611 L2.08203678,76.7977369 C2.28571429,77.3182461 2.03677511,77.884017 1.53889675,78.0876945 L0.611032532,78.4950495 C0.24893918,78.562942 0,78.8797737 0,79.241867 L0,80.758133 C0,81.1202263 0.24893918,81.437058 0.588401697,81.5049505 L1.53889675,81.9123055 C2.03677511,82.1386139 2.26308345,82.7043847 2.08203678,83.2022631 L1.69731259,84.1527581 C1.49363508,84.4695898 1.53889675,84.854314 1.81046676,85.125884 L2.87411598,86.1895332 C3.12305516,86.4384724 3.53041018,86.4837341 3.82461103,86.3026874 L4.79773692,85.9179632 C5.31824611,85.7142857 5.88401697,85.9632249 6.08769448,86.4611033 L6.4950495,87.3889675 C6.56294201,87.7510608 6.87977369,88 7.24186704,88 L7.24186704,88 L8.75813296,88 L8.75813296,88 C9.12022631,88 9.43705799,87.7510608 9.5049505,87.4115983 L9.91230552,86.4611033 C10.1386139,85.9632249 10.7043847,85.7369165 11.2022631,85.9179632 L12.1527581,86.3026874 C12.446959,86.5063649 12.854314,86.4611033 13.125884,86.1895332 L14.1895332,85.125884 C14.4384724,84.8769448 14.4837341,84.4695898 14.3026874,84.175389 L13.9179632,83.2022631 C13.7142857,82.6817539 13.9632249,82.115983 14.4611033,81.9123055 L15.3889675,81.5049505 C15.7510608,81.437058 16,81.1202263 16,80.758133 L16,79.241867 C16,78.8797737 15.7510608,78.562942 15.3889675,78.4950495 Z M7.98868458,83.2701556 C6.17821782,83.2701556 4.70721358,81.7991513 4.70721358,79.9886846 C4.70721358,78.1782178 6.17821782,76.7072136 7.98868458,76.7072136 C9.79915134,76.7072136 11.2701556,78.1782178 11.2701556,79.9886846 C11.2701556,81.7991513 9.79915134,83.2701556 7.98868458,83.2701556 Z" id="Gear-Hovered" fill="#717171" fill-rule="nonzero"></path>
            <path d="M15.3889675,60.4950495 L14.4384724,60.0876945 C14.2121641,59.9971711 14.0311174,59.8161245 13.9179632,59.5898161 L13.9179632,59.5445545 C13.8274399,59.2956153 13.8274399,59.0240453 13.9179632,58.7977369 L14.3026874,57.8472419 C14.5063649,57.5304102 14.4384724,57.1230552 14.1895332,56.874116 L13.125884,55.8104668 C12.8769448,55.5615276 12.4695898,55.5162659 12.175389,55.6973126 L11.2022631,56.0820368 C10.6817539,56.2857143 10.115983,56.0367751 9.91230552,55.5388967 L9.5049505,54.6110325 C9.43705799,54.2489392 9.12022631,54 8.75813296,54 L8.75813296,54 L7.24186704,54 L7.24186704,54 C6.87977369,54 6.56294201,54.2489392 6.4950495,54.5884017 L6.08769448,55.5388967 C5.86138614,56.0367751 5.29561528,56.2630835 4.79773692,56.0820368 L3.84724187,55.6973126 C3.55304102,55.4936351 3.145686,55.5388967 2.87411598,55.8104668 L1.81046676,56.874116 C1.56152758,57.1230552 1.51626591,57.5304102 1.69731259,57.824611 L2.08203678,58.7977369 C2.28571429,59.3182461 2.03677511,59.884017 1.53889675,60.0876945 L0.611032532,60.4950495 C0.24893918,60.562942 0,60.8797737 0,61.241867 L0,62.758133 C0,63.1202263 0.24893918,63.437058 0.588401697,63.5049505 L1.53889675,63.9123055 C2.03677511,64.1386139 2.26308345,64.7043847 2.08203678,65.2022631 L1.69731259,66.1527581 C1.49363508,66.4695898 1.53889675,66.854314 1.81046676,67.125884 L2.87411598,68.1895332 C3.12305516,68.4384724 3.53041018,68.4837341 3.82461103,68.3026874 L4.79773692,67.9179632 C5.31824611,67.7142857 5.88401697,67.9632249 6.08769448,68.4611033 L6.4950495,69.3889675 C6.56294201,69.7510608 6.87977369,70 7.24186704,70 L7.24186704,70 L8.75813296,70 L8.75813296,70 C9.12022631,70 9.43705799,69.7510608 9.5049505,69.4115983 L9.91230552,68.4611033 C10.1386139,67.9632249 10.7043847,67.7369165 11.2022631,67.9179632 L12.1527581,68.3026874 C12.446959,68.5063649 12.854314,68.4611033 13.125884,68.1895332 L14.1895332,67.125884 C14.4384724,66.8769448 14.4837341,66.4695898 14.3026874,66.175389 L13.9179632,65.2022631 C13.7142857,64.6817539 13.9632249,64.115983 14.4611033,63.9123055 L15.3889675,63.5049505 C15.7510608,63.437058 16,63.1202263 16,62.758133 L16,61.241867 C16,60.8797737 15.7510608,60.562942 15.3889675,60.4950495 Z M7.98868458,65.2701556 C6.17821782,65.2701556 4.70721358,63.7991513 4.70721358,61.9886846 C4.70721358,60.1782178 6.17821782,58.7072136 7.98868458,58.7072136 C9.79915134,58.7072136 11.2701556,60.1782178 11.2701556,61.9886846 C11.2701556,63.7991513 9.79915134,65.2701556 7.98868458,65.2701556 Z" id="Gear" fill="#9B9B9B" fill-rule="nonzero"></path>
            <g id="Code-Hovered" transform="translate(0.000000, 146.000000)" fill="#717171">
                <path d="M4.04958678,7.1 L8.31404959,2.8 C8.7107438,2.4 9.30578512,2.4 9.70247934,2.8 C10.0991736,3.2 10.0991736,3.8 9.70247934,4.2 L4.74380165,9.2 C4.54545455,9.4 4.24793388,9.5 4.04958678,9.5 C3.75206612,9.5 3.45454545,9.4 3.25619835,9.2 L-1.70247934,4.2 C-2.09917355,3.8 -2.09917355,3.2 -1.70247934,2.8 C-1.30578512,2.4 -0.710743802,2.4 -0.314049587,2.8 L4.04958678,7.1 Z" id="back_arrow" transform="translate(4.000000, 6.000000) rotate(90.000000) translate(-4.000000, -6.000000) "></path>
                <path d="M14.0495868,7.1 L18.3140496,2.8 C18.7107438,2.4 19.3057851,2.4 19.7024793,2.8 C20.0991736,3.2 20.0991736,3.8 19.7024793,4.2 L14.7438017,9.2 C14.5454545,9.4 14.2479339,9.5 14.0495868,9.5 C13.7520661,9.5 13.4545455,9.4 13.2561983,9.2 L8.29752066,4.2 C7.90082645,3.8 7.90082645,3.2 8.29752066,2.8 C8.69421488,2.4 9.2892562,2.4 9.68595041,2.8 L14.0495868,7.1 Z" id="back_arrow-copy" transform="translate(14.000000, 6.000000) rotate(-90.000000) translate(-14.000000, -6.000000) "></path>
            </g>
            <g id="Code" transform="translate(0.000000, 132.000000)" fill="#9B9B9B">
                <path d="M4.04958678,7.1 L8.31404959,2.8 C8.7107438,2.4 9.30578512,2.4 9.70247934,2.8 C10.0991736,3.2 10.0991736,3.8 9.70247934,4.2 L4.74380165,9.2 C4.54545455,9.4 4.24793388,9.5 4.04958678,9.5 C3.75206612,9.5 3.45454545,9.4 3.25619835,9.2 L-1.70247934,4.2 C-2.09917355,3.8 -2.09917355,3.2 -1.70247934,2.8 C-1.30578512,2.4 -0.710743802,2.4 -0.314049587,2.8 L4.04958678,7.1 Z" id="back_arrow" transform="translate(4.000000, 6.000000) rotate(90.000000) translate(-4.000000, -6.000000) "></path>
                <path d="M14.0495868,7.1 L18.3140496,2.8 C18.7107438,2.4 19.3057851,2.4 19.7024793,2.8 C20.0991736,3.2 20.0991736,3.8 19.7024793,4.2 L14.7438017,9.2 C14.5454545,9.4 14.2479339,9.5 14.0495868,9.5 C13.7520661,9.5 13.4545455,9.4 13.2561983,9.2 L8.29752066,4.2 C7.90082645,3.8 7.90082645,3.2 8.29752066,2.8 C8.69421488,2.4 9.2892562,2.4 9.68595041,2.8 L14.0495868,7.1 Z" id="back_arrow-copy" transform="translate(14.000000, 6.000000) rotate(-90.000000) translate(-14.000000, -6.000000) "></path>
            </g>
            <path d="M8.0661157,48.9142857 L13.7520661,43.3857143 C14.2809917,42.8714286 15.0743802,42.8714286 15.6033058,43.3857143 C16.1322314,43.9 16.1322314,44.6714286 15.6033058,45.1857143 L8.99173554,51.6142857 C8.72727273,51.8714286 8.33057851,52 8.0661157,52 C7.66942149,52 7.27272727,51.8714286 7.00826446,51.6142857 L0.396694215,45.1857143 C-0.132231405,44.6714286 -0.132231405,43.9 0.396694215,43.3857143 C0.925619835,42.8714286 1.71900826,42.8714286 2.24793388,43.3857143 L8.0661157,48.9142857 Z" id="Down-Arrow-Hovered" fill="#717171"></path>
            <path d="M8.0661157,37.9142857 L13.7520661,32.3857143 C14.2809917,31.8714286 15.0743802,31.8714286 15.6033058,32.3857143 C16.1322314,32.9 16.1322314,33.6714286 15.6033058,34.1857143 L8.99173554,40.6142857 C8.72727273,40.8714286 8.33057851,41 8.0661157,41 C7.66942149,41 7.27272727,40.8714286 7.00826446,40.6142857 L0.396694215,34.1857143 C-0.132231405,33.6714286 -0.132231405,32.9 0.396694215,32.3857143 C0.925619835,31.8714286 1.71900826,31.8714286 2.24793388,32.3857143 L8.0661157,37.9142857 Z" id="Down-Arrow-Hovered" fill="#9B9B9B"></path>
            <g id="Close-Hovered" transform="translate(0.000000, 16.000000)" fill="#717171">
                <rect id="Rectangle-35" transform="translate(6.717514, 6.717514) rotate(-45.000000) translate(-6.717514, -6.717514) " x="-1.78248558" y="5.71751442" width="17" height="2" rx="1"></rect>
                <rect id="Rectangle-35-Copy" transform="translate(6.717514, 6.717514) rotate(45.000000) translate(-6.717514, -6.717514) " x="-1.78248558" y="5.71751442" width="17" height="2" rx="1"></rect>
            </g>
            <g id="Close" fill="#9B9B9B">
                <rect id="Rectangle-35" transform="translate(6.717514, 6.717514) rotate(-45.000000) translate(-6.717514, -6.717514) " x="-1.78248558" y="5.71751442" width="17" height="2" rx="1"></rect>
                <rect id="Rectangle-35-Copy" transform="translate(6.717514, 6.717514) rotate(45.000000) translate(-6.717514, -6.717514) " x="-1.78248558" y="5.71751442" width="17" height="2" rx="1"></rect>
            </g>
            <g id="Export-CSV-Hovered" transform="translate(0.000000, 111.000000)" stroke="#717171">
                <polyline id="Path-8" stroke-width="1.30769231" stroke-linecap="round" transform="translate(8.000000, 12.002201) rotate(-45.000000) translate(-8.000000, -12.002201) " points="6.58423 10.589544 6.58734288 13.4148583 9.41577 13.4148583"></polyline>
                <path d="M8.00024414,8 L8,14" id="Line" stroke-width="1.30769231" stroke-linecap="round"></path>
                <polyline id="Path-4" stroke-width="2" points="10.0021973 1.98693848 10.0021973 6.01556396 15.0233154 6.01556396"></polyline>
                <path d="M11.5856624,1 L1,1 L1,18 L14.9983063,18 L14.9983063,4.41408952 L11.5856624,1 Z" id="Path-7" stroke-width="2"></path>
            </g>
            <g id="Export-CSV" transform="translate(0.000000, 90.000000)" stroke="#9B9B9B">
                <polyline id="Path-8" stroke-width="1.30769231" stroke-linecap="round" transform="translate(8.000000, 12.002201) rotate(-45.000000) translate(-8.000000, -12.002201) " points="6.58423 10.589544 6.58734288 13.4148583 9.41577 13.4148583"></polyline>
                <path d="M8.00024414,8 L8,14" id="Line" stroke-width="1.30769231" stroke-linecap="round"></path>
                <polyline id="Path-4" stroke-width="2" points="10.0021973 1.98693848 10.0021973 6.01556396 15.0233154 6.01556396"></polyline>
                <path d="M11.5856624,1 L1,1 L1,18 L14.9983063,18 L14.9983063,4.41408952 L11.5856624,1 Z" id="Path-7" stroke-width="2"></path>
            </g>
            <g id="info_hover" transform="translate(0.000000, 180.000000)">
                <circle id="Oval-6" stroke="#717171" stroke-width="2" cx="9" cy="9" r="8"></circle>
                <path d="M9.78481013,6.89240506 L9.78481013,13.3860759 L8.21518987,13.3860759 L8.21518987,6.89240506 L9.78481013,6.89240506 Z M10,5 C10,5.13502177 9.97257411,5.26160278 9.91772152,5.37974684 C9.86286892,5.49789089 9.79008484,5.60126538 9.69936709,5.68987342 C9.60864934,5.77848146 9.50211032,5.84915585 9.37974684,5.90189873 C9.25738335,5.95464161 9.12658297,5.98101266 8.98734177,5.98101266 C8.85232,5.98101266 8.72468415,5.95464161 8.60443038,5.90189873 C8.48417661,5.84915585 8.37974728,5.77848146 8.29113924,5.68987342 C8.2025312,5.60126538 8.1318568,5.49789089 8.07911392,5.37974684 C8.02637104,5.26160278 8,5.13502177 8,5 C8,4.8607588 8.02637104,4.72995842 8.07911392,4.60759494 C8.1318568,4.48523146 8.2025312,4.37974728 8.29113924,4.29113924 C8.37974728,4.2025312 8.48417661,4.1318568 8.60443038,4.07911392 C8.72468415,4.02637104 8.85232,4 8.98734177,4 C9.12658297,4 9.25738335,4.02637104 9.37974684,4.07911392 C9.50211032,4.1318568 9.60864934,4.2025312 9.69936709,4.29113924 C9.79008484,4.37974728 9.86286892,4.48523146 9.91772152,4.60759494 C9.97257411,4.72995842 10,4.8607588 10,5 Z" id="i" fill="#717171"></path>
            </g>
            <g id="info" transform="translate(0.000000, 160.000000)">
                <circle id="Oval-6" stroke="#9B9B9B" stroke-width="2" cx="9" cy="9" r="8"></circle>
                <path d="M9.78481013,6.89240506 L9.78481013,13.3860759 L8.21518987,13.3860759 L8.21518987,6.89240506 L9.78481013,6.89240506 Z M10,5 C10,5.13502177 9.97257411,5.26160278 9.91772152,5.37974684 C9.86286892,5.49789089 9.79008484,5.60126538 9.69936709,5.68987342 C9.60864934,5.77848146 9.50211032,5.84915585 9.37974684,5.90189873 C9.25738335,5.95464161 9.12658297,5.98101266 8.98734177,5.98101266 C8.85232,5.98101266 8.72468415,5.95464161 8.60443038,5.90189873 C8.48417661,5.84915585 8.37974728,5.77848146 8.29113924,5.68987342 C8.2025312,5.60126538 8.1318568,5.49789089 8.07911392,5.37974684 C8.02637104,5.26160278 8,5.13502177 8,5 C8,4.8607588 8.02637104,4.72995842 8.07911392,4.60759494 C8.1318568,4.48523146 8.2025312,4.37974728 8.29113924,4.29113924 C8.37974728,4.2025312 8.48417661,4.1318568 8.60443038,4.07911392 C8.72468415,4.02637104 8.85232,4 8.98734177,4 C9.12658297,4 9.25738335,4.02637104 9.37974684,4.07911392 C9.50211032,4.1318568 9.60864934,4.2025312 9.69936709,4.29113924 C9.79008484,4.37974728 9.86286892,4.48523146 9.91772152,4.60759494 C9.97257411,4.72995842 10,4.8607588 10,5 Z" id="i" fill="#9B9B9B"></path>
            </g>
        </g>
    </g>
</svg>