<?xml version="1.0" encoding="UTF-8"?>
<svg width="30px" height="330px" viewBox="0 0 30 330" version="1.1" xmlns="http://www.w3.org/2000/svg" xmlns:xlink="http://www.w3.org/1999/xlink">
    <!-- Generator: Sketch 47.1 (45422) - http://www.bohemiancoding.com/sketch -->
    <title>logs_spritesheet</title>
    <desc>Created with Sketch.</desc>
    <defs>
        <path d="M5.99982146,7.38461538 C7.9848832,7.38461538 9.6,5.72845158 9.6,3.69212457 C9.6,1.6561638 7.98524029,0 5.99982146,0 C4.01475971,0 2.4,1.6561638 2.4,3.69212457 C2.4,5.72845158 4.01475971,7.38461538 5.99982146,7.38461538 Z" id="path-1"></path>
        <path d="M2.32767104,15.998278 C2.3356373,15.9989668 4.77202437,15.9995408 9.63683224,16 C10.9994142,15.8653416 12,14.7773978 12,13.4680082 L12,13.2641263 C12,10.0219921 9.30857545,7.38461538 6,7.38461538 C2.69142455,7.38461538 0,10.0219921 0,13.2641263 L0,13.4680082 C0.000351452671,14.7773978 1.00093721,15.8649972 2.32767104,15.998278 Z" id="path-2"></path>
        <path d="M6.88677249,17.5734813 L8.48327229,17.5734813 L8.48327229,16.1469626 L9.4992267,16.1469626 L9.64436305,14.8630958 C10.2249084,15.3053166 10.8925356,15.5478248 11.6907855,15.5478248 C13.5340171,15.5335596 15.0144078,14.0642453 14.9998942,12.2525666 C14.9998942,10.4408879 13.4904762,8.98583881 11.6472446,9.000104 C9.81852666,9.000104 8.32362231,10.4836834 8.33813594,12.2953622 C8.33813594,12.5378703 8.36716321,12.7803785 8.42521775,13.0086215 L5,16.4322664 L5,19 L6.88677249,19 L6.88677249,17.5734813 Z M12.1987627,10.8973739 C12.6777127,10.8973739 13.0550672,11.2682687 13.0550672,11.7390199 C13.0550672,12.209771 12.6777127,12.5806659 12.1987627,12.5806659 C11.7198128,12.5806659 11.3424583,12.209771 11.3424583,11.7390199 C11.3569719,11.2825339 11.7343264,10.8973739 12.1987627,10.8973739 Z" id="path-3"></path>
        <path d="M5.99982146,7.38461538 C7.9848832,7.38461538 9.6,5.72845158 9.6,3.69212457 C9.6,1.6561638 7.98524029,0 5.99982146,0 C4.01475971,0 2.4,1.6561638 2.4,3.69212457 C2.4,5.72845158 4.01475971,7.38461538 5.99982146,7.38461538 Z" id="path-4"></path>
        <path d="M2.32767104,15.998278 C2.3356373,15.9989668 4.77202437,15.9995408 9.63683224,16 C10.9994142,15.8653416 12,14.7773978 12,13.4680082 L12,13.2641263 C12,10.0219921 9.30857545,7.38461538 6,7.38461538 C2.69142455,7.38461538 0,10.0219921 0,13.2641263 L0,13.4680082 C0.000351452671,14.7773978 1.00093721,15.8649972 2.32767104,15.998278 Z" id="path-5"></path>
        <path d="M6.88677249,17.5734813 L8.48327229,17.5734813 L8.48327229,16.1469626 L9.4992267,16.1469626 L9.64436305,14.8630958 C10.2249084,15.3053166 10.8925356,15.5478248 11.6907855,15.5478248 C13.5340171,15.5335596 15.0144078,14.0642453 14.9998942,12.2525666 C14.9998942,10.4408879 13.4904762,8.98583881 11.6472446,9.000104 C9.81852666,9.000104 8.32362231,10.4836834 8.33813594,12.2953622 C8.33813594,12.5378703 8.36716321,12.7803785 8.42521775,13.0086215 L5,16.4322664 L5,19 L6.88677249,19 L6.88677249,17.5734813 Z M12.1987627,10.8973739 C12.6777127,10.8973739 13.0550672,11.2682687 13.0550672,11.7390199 C13.0550672,12.209771 12.6777127,12.5806659 12.1987627,12.5806659 C11.7198128,12.5806659 11.3424583,12.209771 11.3424583,11.7390199 C11.3569719,11.2825339 11.7343264,10.8973739 12.1987627,10.8973739 Z" id="path-6"></path>
    </defs>
    <g id="Page-1" stroke="none" stroke-width="1" fill="none" fill-rule="evenodd">
        <g id="logs_spritesheet">
            <path d="M15.3889675,78.4950495 L14.4384724,78.0876945 C14.2121641,77.9971711 14.0311174,77.8161245 13.9179632,77.5898161 L13.9179632,77.5445545 C13.8274399,77.2956153 13.8274399,77.0240453 13.9179632,76.7977369 L14.3026874,75.8472419 C14.5063649,75.5304102 14.4384724,75.1230552 14.1895332,74.874116 L13.125884,73.8104668 C12.8769448,73.5615276 12.4695898,73.5162659 12.175389,73.6973126 L11.2022631,74.0820368 C10.6817539,74.2857143 10.115983,74.0367751 9.91230552,73.5388967 L9.5049505,72.6110325 C9.43705799,72.2489392 9.12022631,72 8.75813296,72 L8.75813296,72 L7.24186704,72 L7.24186704,72 C6.87977369,72 6.56294201,72.2489392 6.4950495,72.5884017 L6.08769448,73.5388967 C5.86138614,74.0367751 5.29561528,74.2630835 4.79773692,74.0820368 L3.84724187,73.6973126 C3.55304102,73.4936351 3.145686,73.5388967 2.87411598,73.8104668 L1.81046676,74.874116 C1.56152758,75.1230552 1.51626591,75.5304102 1.69731259,75.824611 L2.08203678,76.7977369 C2.28571429,77.3182461 2.03677511,77.884017 1.53889675,78.0876945 L0.611032532,78.4950495 C0.24893918,78.562942 0,78.8797737 0,79.241867 L0,80.758133 C0,81.1202263 0.24893918,81.437058 0.588401697,81.5049505 L1.53889675,81.9123055 C2.03677511,82.1386139 2.26308345,82.7043847 2.08203678,83.2022631 L1.69731259,84.1527581 C1.49363508,84.4695898 1.53889675,84.854314 1.81046676,85.125884 L2.87411598,86.1895332 C3.12305516,86.4384724 3.53041018,86.4837341 3.82461103,86.3026874 L4.79773692,85.9179632 C5.31824611,85.7142857 5.88401697,85.9632249 6.08769448,86.4611033 L6.4950495,87.3889675 C6.56294201,87.7510608 6.87977369,88 7.24186704,88 L7.24186704,88 L8.75813296,88 L8.75813296,88 C9.12022631,88 9.43705799,87.7510608 9.5049505,87.4115983 L9.91230552,86.4611033 C10.1386139,85.9632249 10.7043847,85.7369165 11.2022631,85.9179632 L12.1527581,86.3026874 C12.446959,86.5063649 12.854314,86.4611033 13.125884,86.1895332 L14.1895332,85.125884 C14.4384724,84.8769448 14.4837341,84.4695898 14.3026874,84.175389 L13.9179632,83.2022631 C13.7142857,82.6817539 13.9632249,82.115983 14.4611033,81.9123055 L15.3889675,81.5049505 C15.7510608,81.437058 16,81.1202263 16,80.758133 L16,79.241867 C16,78.8797737 15.7510608,78.562942 15.3889675,78.4950495 Z M7.98868458,83.2701556 C6.17821782,83.2701556 4.70721358,81.7991513 4.70721358,79.9886846 C4.70721358,78.1782178 6.17821782,76.7072136 7.98868458,76.7072136 C9.79915134,76.7072136 11.2701556,78.1782178 11.2701556,79.9886846 C11.2701556,81.7991513 9.79915134,83.2701556 7.98868458,83.2701556 Z" id="Gear-Hovered" fill="#717171" fill-rule="nonzero"></path>
            <path d="M15.3889675,60.4950495 L14.4384724,60.0876945 C14.2121641,59.9971711 14.0311174,59.8161245 13.9179632,59.5898161 L13.9179632,59.5445545 C13.8274399,59.2956153 13.8274399,59.0240453 13.9179632,58.7977369 L14.3026874,57.8472419 C14.5063649,57.5304102 14.4384724,57.1230552 14.1895332,56.874116 L13.125884,55.8104668 C12.8769448,55.5615276 12.4695898,55.5162659 12.175389,55.6973126 L11.2022631,56.0820368 C10.6817539,56.2857143 10.115983,56.0367751 9.91230552,55.5388967 L9.5049505,54.6110325 C9.43705799,54.2489392 9.12022631,54 8.75813296,54 L8.75813296,54 L7.24186704,54 L7.24186704,54 C6.87977369,54 6.56294201,54.2489392 6.4950495,54.5884017 L6.08769448,55.5388967 C5.86138614,56.0367751 5.29561528,56.2630835 4.79773692,56.0820368 L3.84724187,55.6973126 C3.55304102,55.4936351 3.145686,55.5388967 2.87411598,55.8104668 L1.81046676,56.874116 C1.56152758,57.1230552 1.51626591,57.5304102 1.69731259,57.824611 L2.08203678,58.7977369 C2.28571429,59.3182461 2.03677511,59.884017 1.53889675,60.0876945 L0.611032532,60.4950495 C0.24893918,60.562942 0,60.8797737 0,61.241867 L0,62.758133 C0,63.1202263 0.24893918,63.437058 0.588401697,63.5049505 L1.53889675,63.9123055 C2.03677511,64.1386139 2.26308345,64.7043847 2.08203678,65.2022631 L1.69731259,66.1527581 C1.49363508,66.4695898 1.53889675,66.854314 1.81046676,67.125884 L2.87411598,68.1895332 C3.12305516,68.4384724 3.53041018,68.4837341 3.82461103,68.3026874 L4.79773692,67.9179632 C5.31824611,67.7142857 5.88401697,67.9632249 6.08769448,68.4611033 L6.4950495,69.3889675 C6.56294201,69.7510608 6.87977369,70 7.24186704,70 L7.24186704,70 L8.75813296,70 L8.75813296,70 C9.12022631,70 9.43705799,69.7510608 9.5049505,69.4115983 L9.91230552,68.4611033 C10.1386139,67.9632249 10.7043847,67.7369165 11.2022631,67.9179632 L12.1527581,68.3026874 C12.446959,68.5063649 12.854314,68.4611033 13.125884,68.1895332 L14.1895332,67.125884 C14.4384724,66.8769448 14.4837341,66.4695898 14.3026874,66.175389 L13.9179632,65.2022631 C13.7142857,64.6817539 13.9632249,64.115983 14.4611033,63.9123055 L15.3889675,63.5049505 C15.7510608,63.437058 16,63.1202263 16,62.758133 L16,61.241867 C16,60.8797737 15.7510608,60.562942 15.3889675,60.4950495 Z M7.98868458,65.2701556 C6.17821782,65.2701556 4.70721358,63.7991513 4.70721358,61.9886846 C4.70721358,60.1782178 6.17821782,58.7072136 7.98868458,58.7072136 C9.79915134,58.7072136 11.2701556,60.1782178 11.2701556,61.9886846 C11.2701556,63.7991513 9.79915134,65.2701556 7.98868458,65.2701556 Z" id="Gear" fill="#9B9B9B" fill-rule="nonzero"></path>
            <g id="Code-Hovered" transform="translate(0.000000, 146.000000)" fill-rule="nonzero" fill="#717171">
                <path d="M4.04958673,7.10000001 L8.31404954,2.80000001 C8.71074375,2.40000001 9.30578507,2.40000001 9.70247929,2.80000001 C10.0991736,3.20000001 10.0991736,3.80000001 9.70247929,4.20000001 L4.7438016,9.20000001 C4.5454545,9.40000001 4.24793383,9.50000001 4.04958673,9.50000001 C3.75206607,9.50000001 3.4545454,9.40000001 3.2561983,9.20000001 L-1.70247939,4.20000001 C-2.0991736,3.80000001 -2.0991736,3.20000001 -1.70247939,2.80000001 C-1.30578517,2.40000001 -0.710743847,2.40000001 -0.314049632,2.80000001 L4.04958673,7.10000001 Z" id="back_arrow" transform="translate(4.000000, 6.000000) rotate(90.000000) translate(-4.000000, -6.000000) "></path>
                <path d="M14.0495868,7.09999999 L18.3140496,2.79999999 C18.7107438,2.39999999 19.3057851,2.39999999 19.7024793,2.79999999 C20.0991736,3.19999999 20.0991736,3.79999999 19.7024793,4.19999999 L14.7438017,9.19999999 C14.5454545,9.39999999 14.2479339,9.49999999 14.0495868,9.49999999 C13.7520661,9.49999999 13.4545455,9.39999999 13.2561983,9.19999999 L8.29752063,4.19999999 C7.90082642,3.79999999 7.90082642,3.19999999 8.29752063,2.79999999 C8.69421485,2.39999999 9.28925617,2.39999999 9.68595038,2.79999999 L14.0495868,7.09999999 Z" id="back_arrow-copy" transform="translate(14.000000, 6.000000) rotate(-90.000000) translate(-14.000000, -6.000000) "></path>
            </g>
            <g id="Code" transform="translate(0.000000, 132.000000)" fill-rule="nonzero" fill="#9B9B9B">
                <path d="M4.04958673,7.10000001 L8.31404954,2.80000001 C8.71074375,2.40000001 9.30578507,2.40000001 9.70247929,2.80000001 C10.0991736,3.20000001 10.0991736,3.80000001 9.70247929,4.20000001 L4.7438016,9.20000001 C4.5454545,9.40000001 4.24793383,9.50000001 4.04958673,9.50000001 C3.75206607,9.50000001 3.4545454,9.40000001 3.2561983,9.20000001 L-1.70247939,4.20000001 C-2.0991736,3.80000001 -2.0991736,3.20000001 -1.70247939,2.80000001 C-1.30578517,2.40000001 -0.710743847,2.40000001 -0.314049632,2.80000001 L4.04958673,7.10000001 Z" id="back_arrow" transform="translate(4.000000, 6.000000) rotate(90.000000) translate(-4.000000, -6.000000) "></path>
                <path d="M14.0495868,7.09999999 L18.3140496,2.79999999 C18.7107438,2.39999999 19.3057851,2.39999999 19.7024793,2.79999999 C20.0991736,3.19999999 20.0991736,3.79999999 19.7024793,4.19999999 L14.7438017,9.19999999 C14.5454545,9.39999999 14.2479339,9.49999999 14.0495868,9.49999999 C13.7520661,9.49999999 13.4545455,9.39999999 13.2561983,9.19999999 L8.29752063,4.19999999 C7.90082642,3.79999999 7.90082642,3.19999999 8.29752063,2.79999999 C8.69421485,2.39999999 9.28925617,2.39999999 9.68595038,2.79999999 L14.0495868,7.09999999 Z" id="back_arrow-copy" transform="translate(14.000000, 6.000000) rotate(-90.000000) translate(-14.000000, -6.000000) "></path>
            </g>
            <path d="M8.0661157,48.9142857 L13.7520661,43.3857143 C14.2809917,42.8714286 15.0743802,42.8714286 15.6033058,43.3857143 C16.1322314,43.9 16.1322314,44.6714286 15.6033058,45.1857143 L8.99173554,51.6142857 C8.72727273,51.8714286 8.33057851,52 8.0661157,52 C7.66942149,52 7.27272727,51.8714286 7.00826446,51.6142857 L0.396694215,45.1857143 C-0.132231405,44.6714286 -0.132231405,43.9 0.396694215,43.3857143 C0.925619835,42.8714286 1.71900826,42.8714286 2.24793388,43.3857143 L8.0661157,48.9142857 Z" id="Down-Arrow-Hovered" fill="#717171" fill-rule="nonzero"></path>
            <path d="M8.0661157,37.9142857 L13.7520661,32.3857143 C14.2809917,31.8714286 15.0743802,31.8714286 15.6033058,32.3857143 C16.1322314,32.9 16.1322314,33.6714286 15.6033058,34.1857143 L8.99173554,40.6142857 C8.72727273,40.8714286 8.33057851,41 8.0661157,41 C7.66942149,41 7.27272727,40.8714286 7.00826446,40.6142857 L0.396694215,34.1857143 C-0.132231405,33.6714286 -0.132231405,32.9 0.396694215,32.3857143 C0.925619835,31.8714286 1.71900826,31.8714286 2.24793388,32.3857143 L8.0661157,37.9142857 Z" id="Down-Arrow-Hovered" fill="#9B9B9B" fill-rule="nonzero"></path>
            <g id="Close-Hovered" transform="translate(0.000000, 16.000000)" fill-rule="nonzero" fill="#717171">
                <rect id="Rectangle-35" transform="translate(6.717515, 6.717514) rotate(-45.000000) translate(-6.717515, -6.717514) " x="-1.78248529" y="5.71751429" width="17" height="2" rx="1"></rect>
                <rect id="Rectangle-35-Copy" transform="translate(6.717514, 6.717515) rotate(45.000000) translate(-6.717514, -6.717515) " x="-1.78248571" y="5.71751471" width="17" height="2" rx="1"></rect>
            </g>
            <g id="Close" fill-rule="nonzero" fill="#9B9B9B">
                <rect id="Rectangle-35" transform="translate(6.717515, 6.717514) rotate(-45.000000) translate(-6.717515, -6.717514) " x="-1.78248529" y="5.71751429" width="17" height="2" rx="1"></rect>
                <rect id="Rectangle-35-Copy" transform="translate(6.717514, 6.717515) rotate(45.000000) translate(-6.717514, -6.717515) " x="-1.78248571" y="5.71751471" width="17" height="2" rx="1"></rect>
            </g>
            <g id="Export-CSV-Hovered" transform="translate(1.000000, 112.000000)" stroke="#717171">
                <polyline id="Path-8" stroke-linecap="round" transform="translate(7.000000, 10.002201) rotate(-45.000000) translate(-7.000000, -10.002201) " points="5.58423017 8.58954384 5.58734305 11.4148582 8.41577017 11.4148582"></polyline>
                <path d="M7.00024414,6 L7,12" id="Line" stroke-linecap="round"></path>
                <polyline id="Path-4" points="9.99743652 0.0029296875 9.97412112 4.00439453 14 4.00439453"></polyline>
                <path d="M10.7928312,-0.5 L14.4983063,3.20704476 L14.4983063,17.5 L-0.5,17.5 L-0.5,-0.5 L10.7928312,-0.5 Z" id="Path-7"></path>
            </g>
            <g id="Export-CSV" transform="translate(1.000000, 90.000000)" stroke="#9B9B9B">
                <polyline id="Path-8" stroke-linecap="round" transform="translate(7.000000, 11.002201) rotate(-45.000000) translate(-7.000000, -11.002201) " points="5.58423003 9.58954384 5.58734291 12.4148582 8.41577003 12.4148582"></polyline>
                <path d="M7.00024414,7 L7,13" id="Line" stroke-linecap="round"></path>
                <polyline id="Path-4" points="10.0010376 0.998596191 10.0010376 4.99517822 14 4.99517822"></polyline>
                <path d="M10.7928312,0.5 L14.4983063,4.20704476 L14.4983063,18.5 L-0.5,18.5 L-0.5,0.5 L10.7928312,0.5 Z" id="Path-7"></path>
            </g>
            <g id="info_hover" transform="translate(0.000000, 181.000000)">
                <circle id="Oval-6" stroke="#717171" cx="8" cy="8" r="7.5"></circle>
                <path d="M8.78481013,5.89240506 L8.78481013,12.3860759 L7.21518987,12.3860759 L7.21518987,5.89240506 L8.78481013,5.89240506 Z M9,4 C9,4.13502177 8.97257411,4.26160278 8.91772152,4.37974684 C8.86286892,4.49789089 8.79008484,4.60126538 8.69936709,4.68987342 C8.60864934,4.77848146 8.50211032,4.84915585 8.37974684,4.90189873 C8.25738335,4.95464161 8.12658297,4.98101266 7.98734177,4.98101266 C7.85232,4.98101266 7.72468415,4.95464161 7.60443038,4.90189873 C7.48417661,4.84915585 7.37974728,4.77848146 7.29113924,4.68987342 C7.2025312,4.60126538 7.1318568,4.49789089 7.07911392,4.37974684 C7.02637104,4.26160278 7,4.13502177 7,4 C7,3.8607588 7.02637104,3.72995842 7.07911392,3.60759494 C7.1318568,3.48523146 7.2025312,3.37974728 7.29113924,3.29113924 C7.37974728,3.2025312 7.48417661,3.1318568 7.60443038,3.07911392 C7.72468415,3.02637104 7.85232,3 7.98734177,3 C8.12658297,3 8.25738335,3.02637104 8.37974684,3.07911392 C8.50211032,3.1318568 8.60864934,3.2025312 8.69936709,3.29113924 C8.79008484,3.37974728 8.86286892,3.48523146 8.91772152,3.60759494 C8.97257411,3.72995842 9,3.8607588 9,4 Z" id="i" fill="#717171" fill-rule="nonzero"></path>
            </g>
            <g id="info" transform="translate(0.000000, 161.000000)">
                <circle id="Oval-6" stroke="#9B9B9B" cx="8" cy="8" r="7.5"></circle>
                <path d="M8.78481013,5.89240506 L8.78481013,12.3860759 L7.21518987,12.3860759 L7.21518987,5.89240506 L8.78481013,5.89240506 Z M9,4 C9,4.13502177 8.97257411,4.26160278 8.91772152,4.37974684 C8.86286892,4.49789089 8.79008484,4.60126538 8.69936709,4.68987342 C8.60864934,4.77848146 8.50211032,4.84915585 8.37974684,4.90189873 C8.25738335,4.95464161 8.12658297,4.98101266 7.98734177,4.98101266 C7.85232,4.98101266 7.72468415,4.95464161 7.60443038,4.90189873 C7.48417661,4.84915585 7.37974728,4.77848146 7.29113924,4.68987342 C7.2025312,4.60126538 7.1318568,4.49789089 7.07911392,4.37974684 C7.02637104,4.26160278 7,4.13502177 7,4 C7,3.8607588 7.02637104,3.72995842 7.07911392,3.60759494 C7.1318568,3.48523146 7.2025312,3.37974728 7.29113924,3.29113924 C7.37974728,3.2025312 7.48417661,3.1318568 7.60443038,3.07911392 C7.72468415,3.02637104 7.85232,3 7.98734177,3 C8.12658297,3 8.25738335,3.02637104 8.37974684,3.07911392 C8.50211032,3.1318568 8.60864934,3.2025312 8.69936709,3.29113924 C8.79008484,3.37974728 8.86286892,3.48523146 8.91772152,3.60759494 C8.97257411,3.72995842 9,3.8607588 9,4 Z" id="i" fill="#9B9B9B" fill-rule="nonzero"></path>
            </g>
            <g id="edit" transform="translate(2.000000, 199.000000)" stroke="#9B9B9B">
                <g id="pencil" transform="translate(9.929206, 6.483166) rotate(45.000000) translate(-9.929206, -6.483166) translate(8.429206, -0.016834)" fill-rule="nonzero" fill="#FFFFFF">
                    <path d="M0.240136135,0.138033344 C0.240136135,0.0617996333 0.296616653,4.28101998e-13 0.376223242,4.28101998e-13 L2.38893005,4.28101998e-13 C2.46408888,4.28101998e-13 2.52501716,0.0697148882 2.52501716,0.138033344 L2.52501716,10.7791349 C2.52501716,10.8553686 2.48591689,10.972782 2.44791046,11.0268399 L1.42694602,12.4789947 C1.38436117,12.5395647 1.31291751,12.5330527 1.2770286,12.4789947 L0.31294686,11.0268399 C0.272734607,10.9662699 0.240136135,10.8474534 0.240136135,10.7791349 L0.240136135,0.138033344 Z" id="Rectangle-13"></path>
                </g>
                <path d="M9.28341084,2.92425847 L0.410875004,2.92425847 C0.183955005,2.92425847 0,3.10071139 0,3.32687783 L0,16.4774419 C0,16.6998025 0.178143247,16.8800613 0.406476255,16.8800613 L13.6830165,16.8800613 C13.9075071,16.8800613 14.0894928,16.6937519 14.0894928,16.4736031 L14.0894928,7.95993996" id="Path-7" stroke-linecap="round"></path>
            </g>
            <g id="edit" transform="translate(2.000000, 218.000000)" stroke="#717171">
                <g id="pencil" transform="translate(9.929206, 6.483166) rotate(45.000000) translate(-9.929206, -6.483166) translate(8.429206, -0.016834)" fill-rule="nonzero" fill="#FFFFFF">
                    <path d="M0.240136135,0.138033344 C0.240136135,0.0617996333 0.296616653,4.28101998e-13 0.376223242,4.28101998e-13 L2.38893005,4.28101998e-13 C2.46408888,4.28101998e-13 2.52501716,0.0697148882 2.52501716,0.138033344 L2.52501716,10.7791349 C2.52501716,10.8553686 2.48591689,10.972782 2.44791046,11.0268399 L1.42694602,12.4789947 C1.38436117,12.5395647 1.31291751,12.5330527 1.2770286,12.4789947 L0.31294686,11.0268399 C0.272734607,10.9662699 0.240136135,10.8474534 0.240136135,10.7791349 L0.240136135,0.138033344 Z" id="Rectangle-13"></path>
                </g>
                <path d="M9.28341084,2.92425847 L0.410875004,2.92425847 C0.183955005,2.92425847 0,3.10071139 0,3.32687783 L0,16.4774419 C0,16.6998025 0.178143247,16.8800613 0.406476255,16.8800613 L13.6830165,16.8800613 C13.9075071,16.8800613 14.0894928,16.6937519 14.0894928,16.4736031 L14.0894928,7.95993996" id="Path-7" stroke-linecap="round"></path>
            </g>
            <g id="trash" transform="translate(1.000000, 237.000000)" fill-rule="nonzero" fill="#9B9B9B">
                <path d="M13.4931429,3.82216667 C13.1514286,3.791 12.8488571,4.04033333 12.8174286,4.3792 L12.8174286,4.3792 L11.9888571,13.31015 L11.9862857,13.3665333 C11.9868571,14.0116833 11.7545714,14.59025 11.4011429,14.99485 C11.0448571,15.4005833 10.5897143,15.6258333 10.1011429,15.6264 L5.89885714,15.6264 C5.41028571,15.6258333 4.95514286,15.4005833 4.59885714,14.99485 C4.24571429,14.59025 4.01342857,14.0116833 4.014,13.3665333 L4.01142857,13.31015 L3.18285714,4.3792 C3.15114286,4.04033333 2.84885714,3.79071667 2.50714286,3.82216667 C2.16542857,3.85333333 1.91371429,4.15338333 1.94542857,4.49225 L2.774,13.4232 L2.77628571,13.4229167 C2.79,14.3372333 3.11514286,15.1759 3.65885714,15.8009333 C4.21114286,16.4378667 5.00914286,16.85975 5.89914286,16.8591833 L10.1014286,16.8591833 C10.9914286,16.85975 11.7894286,16.4378667 12.3417143,15.8009333 C12.8854286,15.1759 13.2105714,14.3372333 13.2242857,13.4229167 L13.2265714,13.4232 L14.0554286,4.49225 C14.0865714,4.15338333 13.8348571,3.85333333 13.4931429,3.82216667 Z" id="Shape"></path>
                <path d="M15.2294286,2.14001667 L11.018,2.14001667 L11.018,2.0502 C11.0157143,0.995916667 10.156,0.143083333 9.09285714,0.140816667 L6.90685714,0.140816667 C5.84371429,0.143083333 4.984,0.995633333 4.98142857,2.0502 L4.98142857,2.14001667 L0.770571429,2.14001667 C0.427428571,2.14001667 0.149142857,2.41598333 0.149142857,2.75626667 C0.149142857,3.09655 0.427428571,3.37251667 0.770571429,3.37251667 L15.2294286,3.37251667 C15.5725714,3.37251667 15.8508571,3.09655 15.8508571,2.75626667 C15.8508571,2.41598333 15.5725714,2.14001667 15.2294286,2.14001667 Z M6.22457143,2.0502 C6.22514286,1.68215 6.536,1.37416667 6.90685714,1.3736 L9.09285714,1.3736 C9.464,1.37416667 9.77428571,1.68215 9.77514286,2.0502 L9.77514286,2.14001667 L6.22457143,2.14001667 L6.22457143,2.0502 Z" id="Shape"></path>
                <path d="M10.278,13.8289333 L10.6922857,5.52585 C10.7091429,5.18585 10.4451429,4.89656667 10.1022857,4.87985 C9.75942857,4.86313333 9.46771429,5.12493333 9.45085714,5.46493333 L9.03657143,13.7680167 C9.01971429,14.1080167 9.28371429,14.3973 9.62657143,14.4140167 C9.96942857,14.4310167 10.2611429,14.1689333 10.278,13.8289333 Z" id="Shape"></path>
                <path d="M6.37342857,14.4140167 C6.71628571,14.3973 6.98028571,14.1080167 6.96342857,13.7680167 L6.54914286,5.46493333 C6.53228571,5.12493333 6.24057143,4.86313333 5.89771429,4.87985 C5.55485714,4.89656667 5.29085714,5.18585 5.30771429,5.52585 L5.722,13.8289333 C5.73885714,14.1689333 6.03057143,14.4310167 6.37342857,14.4140167 Z" id="Shape"></path>
            </g>
            <g id="trash" transform="translate(1.000000, 256.000000)" fill-rule="nonzero" fill="#717171">
                <path d="M13.4931429,3.82216667 C13.1514286,3.791 12.8488571,4.04033333 12.8174286,4.3792 L12.8174286,4.3792 L11.9888571,13.31015 L11.9862857,13.3665333 C11.9868571,14.0116833 11.7545714,14.59025 11.4011429,14.99485 C11.0448571,15.4005833 10.5897143,15.6258333 10.1011429,15.6264 L5.89885714,15.6264 C5.41028571,15.6258333 4.95514286,15.4005833 4.59885714,14.99485 C4.24571429,14.59025 4.01342857,14.0116833 4.014,13.3665333 L4.01142857,13.31015 L3.18285714,4.3792 C3.15114286,4.04033333 2.84885714,3.79071667 2.50714286,3.82216667 C2.16542857,3.85333333 1.91371429,4.15338333 1.94542857,4.49225 L2.774,13.4232 L2.77628571,13.4229167 C2.79,14.3372333 3.11514286,15.1759 3.65885714,15.8009333 C4.21114286,16.4378667 5.00914286,16.85975 5.89914286,16.8591833 L10.1014286,16.8591833 C10.9914286,16.85975 11.7894286,16.4378667 12.3417143,15.8009333 C12.8854286,15.1759 13.2105714,14.3372333 13.2242857,13.4229167 L13.2265714,13.4232 L14.0554286,4.49225 C14.0865714,4.15338333 13.8348571,3.85333333 13.4931429,3.82216667 Z" id="Shape"></path>
                <path d="M15.2294286,2.14001667 L11.018,2.14001667 L11.018,2.0502 C11.0157143,0.995916667 10.156,0.143083333 9.09285714,0.140816667 L6.90685714,0.140816667 C5.84371429,0.143083333 4.984,0.995633333 4.98142857,2.0502 L4.98142857,2.14001667 L0.770571429,2.14001667 C0.427428571,2.14001667 0.149142857,2.41598333 0.149142857,2.75626667 C0.149142857,3.09655 0.427428571,3.37251667 0.770571429,3.37251667 L15.2294286,3.37251667 C15.5725714,3.37251667 15.8508571,3.09655 15.8508571,2.75626667 C15.8508571,2.41598333 15.5725714,2.14001667 15.2294286,2.14001667 Z M6.22457143,2.0502 C6.22514286,1.68215 6.536,1.37416667 6.90685714,1.3736 L9.09285714,1.3736 C9.464,1.37416667 9.77428571,1.68215 9.77514286,2.0502 L9.77514286,2.14001667 L6.22457143,2.14001667 L6.22457143,2.0502 Z" id="Shape"></path>
                <path d="M10.278,13.8289333 L10.6922857,5.52585 C10.7091429,5.18585 10.4451429,4.89656667 10.1022857,4.87985 C9.75942857,4.86313333 9.46771429,5.12493333 9.45085714,5.46493333 L9.03657143,13.7680167 C9.01971429,14.1080167 9.28371429,14.3973 9.62657143,14.4140167 C9.96942857,14.4310167 10.2611429,14.1689333 10.278,13.8289333 Z" id="Shape"></path>
                <path d="M6.37342857,14.4140167 C6.71628571,14.3973 6.98028571,14.1080167 6.96342857,13.7680167 L6.54914286,5.46493333 C6.53228571,5.12493333 6.24057143,4.86313333 5.89771429,4.87985 C5.55485714,4.89656667 5.29085714,5.18585 5.30771429,5.52585 L5.722,13.8289333 C5.73885714,14.1689333 6.03057143,14.4310167 6.37342857,14.4140167 Z" id="Shape"></path>
            </g>
            <g id="Group-4" transform="translate(0.000000, 275.000000)" fill-rule="nonzero">
                <g id="Group-3">
                    <g id="Shape">
                        <use fill="#FFFFFF" fill-rule="evenodd" xlink:href="#path-1"></use>
                        <path stroke="#9B9B9B" stroke-width="1" d="M5.99982146,6.88461538 C7.70599915,6.88461538 9.1,5.45496882 9.1,3.69212457 C9.1,1.92946345 7.70617769,0.5 5.99982146,0.5 C4.29377489,0.5 2.9,1.92951271 2.9,3.69212457 C2.9,5.45505342 4.29372748,6.88461538 5.99982146,6.88461538 Z"></path>
                    </g>
                    <g id="Shape">
                        <use fill="#FFFFFF" fill-rule="evenodd" xlink:href="#path-2"></use>
                        <path stroke="#9B9B9B" stroke-width="1" d="M2.3710291,15.500107 C2.41592156,15.4986777 6.9717564,15.4997649 9.58765882,15.5024239 C10.6913501,15.3933506 11.5,14.5231143 11.5,13.4680082 L11.5,13.2641263 C11.5,10.3004302 9.03467784,7.88461538 6,7.88461538 C2.96532216,7.88461538 0.5,10.3004302 0.5,13.2641263 L0.499999982,13.467874 C0.500281453,14.5165356 1.30127558,15.389386 2.3710291,15.500107 Z"></path>
                    </g>
                </g>
                <g id="Shape">
                    <use fill="#FFFFFF" fill-rule="evenodd" xlink:href="#path-3"></use>
                    <path stroke="#9B9B9B" stroke-width="1" d="M7.38677249,18.0734813 L7.38677249,19.5 L4.5,19.5 L4.5,16.2250923 L7.88147475,12.8451704 C7.85266588,12.6656038 7.83814157,12.481962 7.83815198,12.2993676 C7.82141552,10.2102217 9.54054228,8.500104 11.6433751,8.50011897 C13.7648065,8.48370074 15.4998942,10.1636333 15.4998781,12.2485612 C15.51661,14.337128 13.8134621,16.0314119 11.6907855,16.0478248 C11.0977285,16.0478248 10.5535542,15.9290973 10.053537,15.6947094 L9.94588829,16.6469626 L8.98327229,16.6469626 L8.98327229,18.0734813 L7.38677249,18.0734813 Z M12.1987627,11.3973739 C12.0122049,11.3973739 11.848394,11.5602747 11.8424583,11.7390199 C11.8424583,11.9316778 11.9940412,12.0806659 12.1987627,12.0806659 C12.4034842,12.0806659 12.5550672,11.9316778 12.5550672,11.7390199 C12.5550672,11.5463619 12.4034842,11.3973739 12.1987627,11.3973739 Z"></path>
                </g>
            </g>
            <g id="Group-4-Copy" transform="translate(0.000000, 298.000000)" fill-rule="nonzero">
                <g id="Group-3">
                    <g id="Shape">
                        <use fill="#FFFFFF" fill-rule="evenodd" xlink:href="#path-4"></use>
                        <path stroke="#717171" stroke-width="1" d="M5.99982146,6.88461538 C7.70599915,6.88461538 9.1,5.45496882 9.1,3.69212457 C9.1,1.92946345 7.70617769,0.5 5.99982146,0.5 C4.29377489,0.5 2.9,1.92951271 2.9,3.69212457 C2.9,5.45505342 4.29372748,6.88461538 5.99982146,6.88461538 Z"></path>
                    </g>
                    <g id="Shape">
                        <use fill="#FFFFFF" fill-rule="evenodd" xlink:href="#path-5"></use>
                        <path stroke="#717171" stroke-width="1" d="M2.3710291,15.500107 C2.41592156,15.4986777 6.9717564,15.4997649 9.58765882,15.5024239 C10.6913501,15.3933506 11.5,14.5231143 11.5,13.4680082 L11.5,13.2641263 C11.5,10.3004302 9.03467784,7.88461538 6,7.88461538 C2.96532216,7.88461538 0.5,10.3004302 0.5,13.2641263 L0.499999982,13.467874 C0.500281453,14.5165356 1.30127558,15.389386 2.3710291,15.500107 Z"></path>
                    </g>
                </g>
                <g id="Shape">
                    <use fill="#FFFFFF" fill-rule="evenodd" xlink:href="#path-6"></use>
                    <path stroke="#717171" stroke-width="1" d="M7.38677249,18.0734813 L7.38677249,19.5 L4.5,19.5 L4.5,16.2250923 L7.88147475,12.8451704 C7.85266588,12.6656038 7.83814157,12.481962 7.83815198,12.2993676 C7.82141552,10.2102217 9.54054228,8.500104 11.6433751,8.50011897 C13.7648065,8.48370074 15.4998942,10.1636333 15.4998781,12.2485612 C15.51661,14.337128 13.8134621,16.0314119 11.6907855,16.0478248 C11.0977285,16.0478248 10.5535542,15.9290973 10.053537,15.6947094 L9.94588829,16.6469626 L8.98327229,16.6469626 L8.98327229,18.0734813 L7.38677249,18.0734813 Z M12.1987627,11.3973739 C12.0122049,11.3973739 11.848394,11.5602747 11.8424583,11.7390199 C11.8424583,11.9316778 11.9940412,12.0806659 12.1987627,12.0806659 C12.4034842,12.0806659 12.5550672,11.9316778 12.5550672,11.7390199 C12.5550672,11.5463619 12.4034842,11.3973739 12.1987627,11.3973739 Z"></path>
                </g>
            </g>
        </g>
    </g>
</svg>