<?xml version="1.0" encoding="UTF-8"?>
<svg width="30px" height="242px" viewBox="0 0 30 242" version="1.1" xmlns="http://www.w3.org/2000/svg" xmlns:xlink="http://www.w3.org/1999/xlink">
    <!-- Generator: Sketch 45.2 (43514) - http://www.bohemiancoding.com/sketch -->
    <title>logs_spritesheet</title>
    <desc>Created with Sketch.</desc>
    <defs></defs>
    <g id="Page-1" stroke="none" stroke-width="1" fill="none" fill-rule="evenodd">
        <g id="logs_spritesheet">
            <path d="M15.3889675,78.4950495 L14.4384724,78.0876945 C14.2121641,77.9971711 14.0311174,77.8161245 13.9179632,77.5898161 L13.9179632,77.5445545 C13.8274399,77.2956153 13.8274399,77.0240453 13.9179632,76.7977369 L14.3026874,75.8472419 C14.5063649,75.5304102 14.4384724,75.1230552 14.1895332,74.874116 L13.125884,73.8104668 C12.8769448,73.5615276 12.4695898,73.5162659 12.175389,73.6973126 L11.2022631,74.0820368 C10.6817539,74.2857143 10.115983,74.0367751 9.91230552,73.5388967 L9.5049505,72.6110325 C9.43705799,72.2489392 9.12022631,72 8.75813296,72 L8.75813296,72 L7.24186704,72 L7.24186704,72 C6.87977369,72 6.56294201,72.2489392 6.4950495,72.5884017 L6.08769448,73.5388967 C5.86138614,74.0367751 5.29561528,74.2630835 4.79773692,74.0820368 L3.84724187,73.6973126 C3.55304102,73.4936351 3.145686,73.5388967 2.87411598,73.8104668 L1.81046676,74.874116 C1.56152758,75.1230552 1.51626591,75.5304102 1.69731259,75.824611 L2.08203678,76.7977369 C2.28571429,77.3182461 2.03677511,77.884017 1.53889675,78.0876945 L0.611032532,78.4950495 C0.24893918,78.562942 0,78.8797737 0,79.241867 L0,80.758133 C0,81.1202263 0.24893918,81.437058 0.588401697,81.5049505 L1.53889675,81.9123055 C2.03677511,82.1386139 2.26308345,82.7043847 2.08203678,83.2022631 L1.69731259,84.1527581 C1.49363508,84.4695898 1.53889675,84.854314 1.81046676,85.125884 L2.87411598,86.1895332 C3.12305516,86.4384724 3.53041018,86.4837341 3.82461103,86.3026874 L4.79773692,85.9179632 C5.31824611,85.7142857 5.88401697,85.9632249 6.08769448,86.4611033 L6.4950495,87.3889675 C6.56294201,87.7510608 6.87977369,88 7.24186704,88 L7.24186704,88 L8.75813296,88 L8.75813296,88 C9.12022631,88 9.43705799,87.7510608 9.5049505,87.4115983 L9.91230552,86.4611033 C10.1386139,85.9632249 10.7043847,85.7369165 11.2022631,85.9179632 L12.1527581,86.3026874 C12.446959,86.5063649 12.854314,86.4611033 13.125884,86.1895332 L14.1895332,85.125884 C14.4384724,84.8769448 14.4837341,84.4695898 14.3026874,84.175389 L13.9179632,83.2022631 C13.7142857,82.6817539 13.9632249,82.115983 14.4611033,81.9123055 L15.3889675,81.5049505 C15.7510608,81.437058 16,81.1202263 16,80.758133 L16,79.241867 C16,78.8797737 15.7510608,78.562942 15.3889675,78.4950495 Z M7.98868458,83.2701556 C6.17821782,83.2701556 4.70721358,81.7991513 4.70721358,79.9886846 C4.70721358,78.1782178 6.17821782,76.7072136 7.98868458,76.7072136 C9.79915134,76.7072136 11.2701556,78.1782178 11.2701556,79.9886846 C11.2701556,81.7991513 9.79915134,83.2701556 7.98868458,83.2701556 Z" id="Gear-Hovered" fill="#717171" fill-rule="nonzero"></path>
            <path d="M15.3889675,60.4950495 L14.4384724,60.0876945 C14.2121641,59.9971711 14.0311174,59.8161245 13.9179632,59.5898161 L13.9179632,59.5445545 C13.8274399,59.2956153 13.8274399,59.0240453 13.9179632,58.7977369 L14.3026874,57.8472419 C14.5063649,57.5304102 14.4384724,57.1230552 14.1895332,56.874116 L13.125884,55.8104668 C12.8769448,55.5615276 12.4695898,55.5162659 12.175389,55.6973126 L11.2022631,56.0820368 C10.6817539,56.2857143 10.115983,56.0367751 9.91230552,55.5388967 L9.5049505,54.6110325 C9.43705799,54.2489392 9.12022631,54 8.75813296,54 L8.75813296,54 L7.24186704,54 L7.24186704,54 C6.87977369,54 6.56294201,54.2489392 6.4950495,54.5884017 L6.08769448,55.5388967 C5.86138614,56.0367751 5.29561528,56.2630835 4.79773692,56.0820368 L3.84724187,55.6973126 C3.55304102,55.4936351 3.145686,55.5388967 2.87411598,55.8104668 L1.81046676,56.874116 C1.56152758,57.1230552 1.51626591,57.5304102 1.69731259,57.824611 L2.08203678,58.7977369 C2.28571429,59.3182461 2.03677511,59.884017 1.53889675,60.0876945 L0.611032532,60.4950495 C0.24893918,60.562942 0,60.8797737 0,61.241867 L0,62.758133 C0,63.1202263 0.24893918,63.437058 0.588401697,63.5049505 L1.53889675,63.9123055 C2.03677511,64.1386139 2.26308345,64.7043847 2.08203678,65.2022631 L1.69731259,66.1527581 C1.49363508,66.4695898 1.53889675,66.854314 1.81046676,67.125884 L2.87411598,68.1895332 C3.12305516,68.4384724 3.53041018,68.4837341 3.82461103,68.3026874 L4.79773692,67.9179632 C5.31824611,67.7142857 5.88401697,67.9632249 6.08769448,68.4611033 L6.4950495,69.3889675 C6.56294201,69.7510608 6.87977369,70 7.24186704,70 L7.24186704,70 L8.75813296,70 L8.75813296,70 C9.12022631,70 9.43705799,69.7510608 9.5049505,69.4115983 L9.91230552,68.4611033 C10.1386139,67.9632249 10.7043847,67.7369165 11.2022631,67.9179632 L12.1527581,68.3026874 C12.446959,68.5063649 12.854314,68.4611033 13.125884,68.1895332 L14.1895332,67.125884 C14.4384724,66.8769448 14.4837341,66.4695898 14.3026874,66.175389 L13.9179632,65.2022631 C13.7142857,64.6817539 13.9632249,64.115983 14.4611033,63.9123055 L15.3889675,63.5049505 C15.7510608,63.437058 16,63.1202263 16,62.758133 L16,61.241867 C16,60.8797737 15.7510608,60.562942 15.3889675,60.4950495 Z M7.98868458,65.2701556 C6.17821782,65.2701556 4.70721358,63.7991513 4.70721358,61.9886846 C4.70721358,60.1782178 6.17821782,58.7072136 7.98868458,58.7072136 C9.79915134,58.7072136 11.2701556,60.1782178 11.2701556,61.9886846 C11.2701556,63.7991513 9.79915134,65.2701556 7.98868458,65.2701556 Z" id="Gear" fill="#9B9B9B" fill-rule="nonzero"></path>
            <g id="Code-Hovered" transform="translate(0.000000, 146.000000)" fill="#717171">
                <path d="M4.04958678,7.1 L8.31404959,2.8 C8.7107438,2.4 9.30578512,2.4 9.70247934,2.8 C10.0991736,3.2 10.0991736,3.8 9.70247934,4.2 L4.74380165,9.2 C4.54545455,9.4 4.24793388,9.5 4.04958678,9.5 C3.75206612,9.5 3.45454545,9.4 3.25619835,9.2 L-1.70247934,4.2 C-2.09917355,3.8 -2.09917355,3.2 -1.70247934,2.8 C-1.30578512,2.4 -0.710743802,2.4 -0.314049587,2.8 L4.04958678,7.1 Z" id="back_arrow" transform="translate(4.000000, 6.000000) rotate(90.000000) translate(-4.000000, -6.000000) "></path>
                <path d="M14.0495868,7.1 L18.3140496,2.8 C18.7107438,2.4 19.3057851,2.4 19.7024793,2.8 C20.0991736,3.2 20.0991736,3.8 19.7024793,4.2 L14.7438017,9.2 C14.5454545,9.4 14.2479339,9.5 14.0495868,9.5 C13.7520661,9.5 13.4545455,9.4 13.2561983,9.2 L8.29752066,4.2 C7.90082645,3.8 7.90082645,3.2 8.29752066,2.8 C8.69421488,2.4 9.2892562,2.4 9.68595041,2.8 L14.0495868,7.1 Z" id="back_arrow-copy" transform="translate(14.000000, 6.000000) rotate(-90.000000) translate(-14.000000, -6.000000) "></path>
            </g>
            <g id="Code" transform="translate(0.000000, 132.000000)" fill="#9B9B9B">
                <path d="M4.04958678,7.1 L8.31404959,2.8 C8.7107438,2.4 9.30578512,2.4 9.70247934,2.8 C10.0991736,3.2 10.0991736,3.8 9.70247934,4.2 L4.74380165,9.2 C4.54545455,9.4 4.24793388,9.5 4.04958678,9.5 C3.75206612,9.5 3.45454545,9.4 3.25619835,9.2 L-1.70247934,4.2 C-2.09917355,3.8 -2.09917355,3.2 -1.70247934,2.8 C-1.30578512,2.4 -0.710743802,2.4 -0.314049587,2.8 L4.04958678,7.1 Z" id="back_arrow" transform="translate(4.000000, 6.000000) rotate(90.000000) translate(-4.000000, -6.000000) "></path>
                <path d="M14.0495868,7.1 L18.3140496,2.8 C18.7107438,2.4 19.3057851,2.4 19.7024793,2.8 C20.0991736,3.2 20.0991736,3.8 19.7024793,4.2 L14.7438017,9.2 C14.5454545,9.4 14.2479339,9.5 14.0495868,9.5 C13.7520661,9.5 13.4545455,9.4 13.2561983,9.2 L8.29752066,4.2 C7.90082645,3.8 7.90082645,3.2 8.29752066,2.8 C8.69421488,2.4 9.2892562,2.4 9.68595041,2.8 L14.0495868,7.1 Z" id="back_arrow-copy" transform="translate(14.000000, 6.000000) rotate(-90.000000) translate(-14.000000, -6.000000) "></path>
            </g>
            <path d="M8.0661157,48.9142857 L13.7520661,43.3857143 C14.2809917,42.8714286 15.0743802,42.8714286 15.6033058,43.3857143 C16.1322314,43.9 16.1322314,44.6714286 15.6033058,45.1857143 L8.99173554,51.6142857 C8.72727273,51.8714286 8.33057851,52 8.0661157,52 C7.66942149,52 7.27272727,51.8714286 7.00826446,51.6142857 L0.396694215,45.1857143 C-0.132231405,44.6714286 -0.132231405,43.9 0.396694215,43.3857143 C0.925619835,42.8714286 1.71900826,42.8714286 2.24793388,43.3857143 L8.0661157,48.9142857 Z" id="Down-Arrow-Hovered" fill="#717171"></path>
            <path d="M8.0661157,37.9142857 L13.7520661,32.3857143 C14.2809917,31.8714286 15.0743802,31.8714286 15.6033058,32.3857143 C16.1322314,32.9 16.1322314,33.6714286 15.6033058,34.1857143 L8.99173554,40.6142857 C8.72727273,40.8714286 8.33057851,41 8.0661157,41 C7.66942149,41 7.27272727,40.8714286 7.00826446,40.6142857 L0.396694215,34.1857143 C-0.132231405,33.6714286 -0.132231405,32.9 0.396694215,32.3857143 C0.925619835,31.8714286 1.71900826,31.8714286 2.24793388,32.3857143 L8.0661157,37.9142857 Z" id="Down-Arrow-Hovered" fill="#9B9B9B"></path>
            <g id="Close-Hovered" transform="translate(0.000000, 16.000000)" fill="#717171">
                <rect id="Rectangle-35" transform="translate(6.717514, 6.717514) rotate(-45.000000) translate(-6.717514, -6.717514) " x="-1.78248558" y="5.71751442" width="17" height="2" rx="1"></rect>
                <rect id="Rectangle-35-Copy" transform="translate(6.717514, 6.717514) rotate(45.000000) translate(-6.717514, -6.717514) " x="-1.78248558" y="5.71751442" width="17" height="2" rx="1"></rect>
            </g>
            <g id="Close" fill="#9B9B9B">
                <rect id="Rectangle-35" transform="translate(6.717514, 6.717514) rotate(-45.000000) translate(-6.717514, -6.717514) " x="-1.78248558" y="5.71751442" width="17" height="2" rx="1"></rect>
                <rect id="Rectangle-35-Copy" transform="translate(6.717514, 6.717514) rotate(45.000000) translate(-6.717514, -6.717514) " x="-1.78248558" y="5.71751442" width="17" height="2" rx="1"></rect>
            </g>
            <g id="Export-CSV-Hovered" transform="translate(0.000000, 111.000000)" stroke="#717171">
                <polyline id="Path-8" stroke-width="1.30769231" stroke-linecap="round" transform="translate(8.000000, 12.002201) rotate(-45.000000) translate(-8.000000, -12.002201) " points="6.58423 10.589544 6.58734288 13.4148583 9.41577 13.4148583"></polyline>
                <path d="M8.00024414,8 L8,14" id="Line" stroke-width="1.30769231" stroke-linecap="round"></path>
                <polyline id="Path-4" stroke-width="2" points="10.0021973 1.98693848 10.0021973 6.01556396 15.0233154 6.01556396"></polyline>
                <path d="M11.5856624,1 L1,1 L1,18 L14.9983063,18 L14.9983063,4.41408952 L11.5856624,1 Z" id="Path-7" stroke-width="2"></path>
            </g>
            <g id="Export-CSV" transform="translate(0.000000, 90.000000)" stroke="#9B9B9B">
                <polyline id="Path-8" stroke-width="1.30769231" stroke-linecap="round" transform="translate(8.000000, 12.002201) rotate(-45.000000) translate(-8.000000, -12.002201) " points="6.58423 10.589544 6.58734288 13.4148583 9.41577 13.4148583"></polyline>
                <path d="M8.00024414,8 L8,14" id="Line" stroke-width="1.30769231" stroke-linecap="round"></path>
                <polyline id="Path-4" stroke-width="2" points="10.0021973 1.98693848 10.0021973 6.01556396 15.0233154 6.01556396"></polyline>
                <path d="M11.5856624,1 L1,1 L1,18 L14.9983063,18 L14.9983063,4.41408952 L11.5856624,1 Z" id="Path-7" stroke-width="2"></path>
            </g>
            <g id="info_hover" transform="translate(0.000000, 180.000000)">
                <circle id="Oval-6" stroke="#717171" stroke-width="2" cx="9" cy="9" r="8"></circle>
                <path d="M9.78481013,6.89240506 L9.78481013,13.3860759 L8.21518987,13.3860759 L8.21518987,6.89240506 L9.78481013,6.89240506 Z M10,5 C10,5.13502177 9.97257411,5.26160278 9.91772152,5.37974684 C9.86286892,5.49789089 9.79008484,5.60126538 9.69936709,5.68987342 C9.60864934,5.77848146 9.50211032,5.84915585 9.37974684,5.90189873 C9.25738335,5.95464161 9.12658297,5.98101266 8.98734177,5.98101266 C8.85232,5.98101266 8.72468415,5.95464161 8.60443038,5.90189873 C8.48417661,5.84915585 8.37974728,5.77848146 8.29113924,5.68987342 C8.2025312,5.60126538 8.1318568,5.49789089 8.07911392,5.37974684 C8.02637104,5.26160278 8,5.13502177 8,5 C8,4.8607588 8.02637104,4.72995842 8.07911392,4.60759494 C8.1318568,4.48523146 8.2025312,4.37974728 8.29113924,4.29113924 C8.37974728,4.2025312 8.48417661,4.1318568 8.60443038,4.07911392 C8.72468415,4.02637104 8.85232,4 8.98734177,4 C9.12658297,4 9.25738335,4.02637104 9.37974684,4.07911392 C9.50211032,4.1318568 9.60864934,4.2025312 9.69936709,4.29113924 C9.79008484,4.37974728 9.86286892,4.48523146 9.91772152,4.60759494 C9.97257411,4.72995842 10,4.8607588 10,5 Z" id="i" fill="#717171"></path>
            </g>
            <g id="info" transform="translate(0.000000, 160.000000)">
                <circle id="Oval-6" stroke="#9B9B9B" stroke-width="2" cx="9" cy="9" r="8"></circle>
                <path d="M9.78481013,6.89240506 L9.78481013,13.3860759 L8.21518987,13.3860759 L8.21518987,6.89240506 L9.78481013,6.89240506 Z M10,5 C10,5.13502177 9.97257411,5.26160278 9.91772152,5.37974684 C9.86286892,5.49789089 9.79008484,5.60126538 9.69936709,5.68987342 C9.60864934,5.77848146 9.50211032,5.84915585 9.37974684,5.90189873 C9.25738335,5.95464161 9.12658297,5.98101266 8.98734177,5.98101266 C8.85232,5.98101266 8.72468415,5.95464161 8.60443038,5.90189873 C8.48417661,5.84915585 8.37974728,5.77848146 8.29113924,5.68987342 C8.2025312,5.60126538 8.1318568,5.49789089 8.07911392,5.37974684 C8.02637104,5.26160278 8,5.13502177 8,5 C8,4.8607588 8.02637104,4.72995842 8.07911392,4.60759494 C8.1318568,4.48523146 8.2025312,4.37974728 8.29113924,4.29113924 C8.37974728,4.2025312 8.48417661,4.1318568 8.60443038,4.07911392 C8.72468415,4.02637104 8.85232,4 8.98734177,4 C9.12658297,4 9.25738335,4.02637104 9.37974684,4.07911392 C9.50211032,4.1318568 9.60864934,4.2025312 9.69936709,4.29113924 C9.79008484,4.37974728 9.86286892,4.48523146 9.91772152,4.60759494 C9.97257411,4.72995842 10,4.8607588 10,5 Z" id="i" fill="#9B9B9B"></path>
            </g>
            <g id="Group-Copy" transform="translate(0.000000, 221.000000)" fill-rule="nonzero" fill="#717171">
                <path d="M16.6258448,13.5086572 C16.0876232,13.8342649 15.4593223,14.0871176 14.7738598,14.2597842 C15.5782214,13.5672261 16.0119539,12.7303737 16.0119539,11.8424509 L16.0119539,11.5800057 C16.1260041,11.5199506 16.2382788,11.4581392 16.3463192,11.3927474 C16.984386,11.0068145 17.4792412,10.5519769 17.8146992,10.0524866 C18.076605,10.430786 18.2144215,10.8352962 18.2144215,11.2484532 C18.2144215,12.0863864 17.6502483,12.8890568 16.6258448,13.5086572 L16.6258448,13.5086572 L16.6258448,13.5086572 Z M18.5647759,13.6031198 C18.5647759,14.4150039 18.1295005,15.1992616 17.3252289,15.8667466 L17.3252289,14.5042328 C17.8151951,14.1887154 18.2301282,13.8384796 18.5647759,13.461607 L18.5647759,13.6031198 L18.5647759,13.6031198 Z M16.9917484,16.1215685 C16.875197,16.2038702 16.7540602,16.2845226 16.6255034,16.3622887 C16.2661782,16.5795883 15.8731714,16.7695089 15.4547368,16.9323805 L15.4547368,15.3952848 C16.0049796,15.2063538 16.5207072,14.9755296 16.9917484,14.7052864 L16.9917484,16.1215685 L16.9917484,16.1215685 Z M15.1212563,17.0541838 C14.6367091,17.2203541 14.1215651,17.3507338 13.5841613,17.4429315 L13.5841613,15.8548714 C14.1162294,15.7713327 14.6305397,15.653158 15.1212563,15.5033161 L15.1212563,17.0541838 L15.1212563,17.0541838 Z M13.3026204,14.2556783 C13.186069,14.33798 13.0649322,14.4186324 12.9363754,14.4963984 C12.5770502,14.7137805 12.1840434,14.9037012 11.7656088,15.0664903 L11.7656088,13.5293946 C12.3158516,13.3404635 12.8315792,13.1096394 13.3026204,12.8393962 L13.3026204,14.2556783 L13.3026204,14.2556783 Z M13.2506808,17.4948855 C12.7526277,17.5645698 12.2381507,17.6023395 11.7137526,17.6060505 L11.7137526,16.1382268 C11.8468947,16.0933649 11.9778691,16.0458641 12.1068427,15.9961368 C12.4941803,15.9817876 12.8760988,15.9502853 13.2506808,15.9021248 L13.2506808,17.4948855 L13.2506808,17.4948855 Z M10.8505383,11.5878 L10.8505383,9.98638032 C11.372602,9.98291673 11.8867456,9.94819827 12.3875499,9.88379182 L12.3875499,11.476635 C11.8894134,11.5463193 11.3749364,11.584089 10.8505383,11.5878 L10.8505383,11.5878 L10.8505383,11.5878 Z M7.4654832,12.9439283 C5.78782874,12.9439283 4.21692739,12.5526311 3.04234795,11.842137 C1.93571572,11.1728014 1.32633024,10.3057008 1.32633024,9.40050681 C1.32633024,8.52362747 1.89978705,7.68294424 2.9417182,7.02265761 L2.9417182,8.01885266 C2.9417182,9.24054346 3.70153189,10.3729847 5.08120716,11.2075379 C6.39293524,12.0010057 8.12776569,12.4379858 9.96617692,12.4379858 C10.2026274,12.4379858 10.4372334,12.4304693 10.6695524,12.416166 C9.71364345,12.7601748 8.61468387,12.9439283 7.4654832,12.9439283 L7.4654832,12.9439283 L7.4654832,12.9439283 Z M11.4321283,15.1882936 C10.9475811,15.3545463 10.4324371,15.4849261 9.8950333,15.5771238 L9.8950333,13.9889812 C10.4271014,13.9054425 10.9414117,13.7872678 11.4321283,13.6374259 L11.4321283,15.1882936 L11.4321283,15.1882936 Z M11.3802721,17.6037415 C10.8550403,17.5930208 10.3403965,17.5487362 9.84326046,17.4717124 L9.84326046,16.5887421 C10.3749951,16.5075949 10.8891387,16.3914818 11.3802721,16.2443614 L11.3802721,17.6037415 L11.3802721,17.6037415 Z M9.5615528,15.6289953 C9.0634997,15.6987621 8.54902265,15.7364493 8.02462457,15.7402428 L8.02462457,14.1388231 C8.54668828,14.1353595 9.06074848,14.100641 9.5615528,14.0362346 L9.5615528,15.6289953 L9.5615528,15.6289953 Z M9.50977996,17.4146455 C8.97104222,17.3137888 8.45548137,17.1745026 7.97276835,16.9985188 L7.97276835,16.7305847 C8.49458196,16.7291827 9.00872552,16.6965259 9.50977996,16.6342636 L9.50977996,17.4146455 L9.50977996,17.4146455 Z M7.69114407,15.7378513 C7.16591228,15.7272131 6.65126852,15.682846 6.15413246,15.6058222 L6.15413246,14.0142985 C6.65426985,14.0853847 7.16841339,14.1265356 7.69114407,14.1364316 L7.69114407,15.7378513 L7.69114407,15.7378513 Z M5.82065196,15.5487552 C5.28191422,15.4478985 4.76635337,15.3086949 4.28364035,15.1327111 L4.28364035,13.5884407 C4.77277287,13.7465293 5.28791687,13.870889 5.82065196,13.9620146 L5.82065196,15.5487552 L5.82065196,15.5487552 Z M3.95015985,15.0024962 C3.59150159,14.8543037 3.25276876,14.6857419 2.93963059,14.4963984 C2.7506305,14.3820172 2.57605348,14.2620283 2.41314824,14.1380809 L2.41314824,12.7467862 C2.41464891,12.7477758 2.41614957,12.7486829 2.41773361,12.7496725 C2.88477304,13.0322032 3.39941683,13.2744902 3.95015985,13.474142 L3.95015985,15.0024962 L3.95015985,15.0024962 Z M2.07966774,13.8623949 C1.37794141,13.2259998 1.00044149,12.4935311 1.00044149,11.7372296 L1.00044149,11.5957168 C1.29790609,11.9307788 1.65889874,12.2446468 2.07966774,12.5318781 L2.07966774,13.8623949 L2.07966774,13.8623949 Z M3.82635522,7.44335653 C4.12381983,7.77833603 4.48489583,8.09228653 4.90558148,8.37951784 L4.90558148,9.70995214 C4.20385515,9.07363954 3.82635522,8.34108839 3.82635522,7.58486929 L3.82635522,7.44335653 L3.82635522,7.44335653 Z M6.77607359,9.32178167 L6.77607359,10.8501359 C6.4174987,10.7019434 6.0786825,10.5333816 5.76562767,10.3439557 C5.57654424,10.2296569 5.40205057,10.1096679 5.23906198,9.98572059 L5.23906198,8.59442589 C5.24064602,8.59533304 5.2420633,8.59632262 5.24364733,8.59722977 C5.71068676,8.87976047 6.22541391,9.12204746 6.77607359,9.32178167 L6.77607359,9.32178167 L6.77607359,9.32178167 Z M8.6465657,9.80957184 L8.6465657,11.396395 C8.10791133,11.2955382 7.59226711,11.1562521 7.10955409,10.9802683 L7.10955409,9.43599798 C7.59876998,9.59408652 8.11383061,9.71852867 8.6465657,9.80957184 L8.6465657,9.80957184 L8.6465657,9.80957184 Z M10.5170578,9.98398879 L10.5170578,11.585491 C9.99190939,11.5747703 9.47718224,11.5304857 8.9800462,11.4533794 L8.9800462,9.86193817 C9.48018357,9.93302441 9.99432713,9.9740928 10.5170578,9.98398879 L10.5170578,9.98398879 L10.5170578,9.98398879 Z M14.5915225,10.91413 L14.5915225,9.37695186 C15.1417653,9.18802078 15.6574929,8.95719664 16.1285341,8.68703594 L16.1285341,10.1032356 C16.0119827,10.1855373 15.8909293,10.2661896 15.7622892,10.3439557 C15.4030473,10.5613377 15.0099572,10.7512584 14.5915225,10.91413 L14.5915225,10.91413 L14.5915225,10.91413 Z M12.7210304,11.424681 L12.7210304,9.83653845 C13.2530985,9.75308219 13.7674088,9.6349075 14.258042,9.48506563 L14.258042,11.0359333 C13.7734949,11.2021035 13.2584342,11.3324833 12.7210304,11.424681 L12.7210304,11.424681 L12.7210304,11.424681 Z M13.6361009,12.6383426 C13.9398183,12.4427317 14.2147729,12.2337612 14.459631,12.0134104 C14.5988591,11.9677238 14.7352526,11.9187386 14.8701455,11.8677743 C14.8262094,12.6329822 14.3971034,13.3692444 13.6361009,14.0008564 L13.6361009,12.6383426 L13.6361009,12.6383426 Z M17.7015616,7.44335653 L17.7015616,7.58486929 C17.7015616,8.39667089 17.2662862,9.18101112 16.4620146,9.84841363 L16.4620146,8.48589981 C16.9519808,8.17038243 17.366914,7.82014661 17.7015616,7.44335653 L17.7015616,7.44335653 L17.7015616,7.44335653 Z M6.22283344,2.48706686 C7.42875555,1.75761384 9.0414993,1.35587522 10.7639206,1.35587522 C12.4864175,1.35587522 14.0992371,1.75761384 15.3050834,2.48706686 C16.4412452,3.17426317 17.0669673,4.06457648 17.0669673,4.99384989 C17.0669673,5.9231233 16.4412452,6.81343661 15.3050834,7.50063292 C14.0992371,8.23008596 12.4864175,8.63182456 10.7639206,8.63182456 C9.0414993,8.63182456 7.42875555,8.23008596 6.22283344,7.50063292 C5.08667168,6.81343661 4.46094951,5.9231233 4.46094951,4.99384989 C4.46094951,4.06457648 5.08667168,3.17426317 6.22283344,2.48706686 L6.22283344,2.48706686 L6.22283344,2.48706686 Z M18.5566056,8.55360491 C18.6524813,8.23858235 18.7020031,7.91465338 18.7020031,7.58486929 L18.7020031,4.99384989 C18.7020031,3.61319339 17.8433742,2.33347607 16.2842695,1.39047003 C14.8019487,0.493810245 12.8415002,0 10.7639167,0 C8.68641661,0 6.72596815,0.493810245 5.24364733,1.39047003 C3.74673676,2.29587127 2.89144265,3.51167696 2.82591374,4.82916401 L2.82591374,5.31423281 C2.68668563,5.38762811 2.54962513,5.46300261 2.41773361,5.54283031 C0.920823022,6.44823158 0.0655289174,7.66411972 0,8.98160678 L0,11.7372296 C0,13.1178861 0.858628909,14.3976034 2.41773361,15.3406919 C3.17440085,15.7983818 4.05620665,16.1504319 5.01412939,16.386039 C5.32693409,16.6803625 5.69176176,16.9554712 6.10686161,17.2065821 C7.58909904,18.1031594 9.54963089,18.5969697 11.627131,18.5969697 C13.7047145,18.5969697 15.665163,18.1031594 17.1474838,17.2065821 C18.7065051,16.2634936 19.5652174,14.9837763 19.5652174,13.6031198 L19.5652174,11.0121004 C19.5652174,10.1310268 19.2149795,9.29126901 18.5566056,8.55360491 L18.5566056,8.55360491 L18.5566056,8.55360491 Z" id="Shape"></path>
            </g>
            <g id="Group" transform="translate(0.000000, 200.000000)" fill-rule="nonzero" fill="#9B9B9B">
                <path d="M16.6258448,13.5086572 C16.0876232,13.8342649 15.4593223,14.0871176 14.7738598,14.2597842 C15.5782214,13.5672261 16.0119539,12.7303737 16.0119539,11.8424509 L16.0119539,11.5800057 C16.1260041,11.5199506 16.2382788,11.4581392 16.3463192,11.3927474 C16.984386,11.0068145 17.4792412,10.5519769 17.8146992,10.0524866 C18.076605,10.430786 18.2144215,10.8352962 18.2144215,11.2484532 C18.2144215,12.0863864 17.6502483,12.8890568 16.6258448,13.5086572 L16.6258448,13.5086572 L16.6258448,13.5086572 Z M18.5647759,13.6031198 C18.5647759,14.4150039 18.1295005,15.1992616 17.3252289,15.8667466 L17.3252289,14.5042328 C17.8151951,14.1887154 18.2301282,13.8384796 18.5647759,13.461607 L18.5647759,13.6031198 L18.5647759,13.6031198 Z M16.9917484,16.1215685 C16.875197,16.2038702 16.7540602,16.2845226 16.6255034,16.3622887 C16.2661782,16.5795883 15.8731714,16.7695089 15.4547368,16.9323805 L15.4547368,15.3952848 C16.0049796,15.2063538 16.5207072,14.9755296 16.9917484,14.7052864 L16.9917484,16.1215685 L16.9917484,16.1215685 Z M15.1212563,17.0541838 C14.6367091,17.2203541 14.1215651,17.3507338 13.5841613,17.4429315 L13.5841613,15.8548714 C14.1162294,15.7713327 14.6305397,15.653158 15.1212563,15.5033161 L15.1212563,17.0541838 L15.1212563,17.0541838 Z M13.3026204,14.2556783 C13.186069,14.33798 13.0649322,14.4186324 12.9363754,14.4963984 C12.5770502,14.7137805 12.1840434,14.9037012 11.7656088,15.0664903 L11.7656088,13.5293946 C12.3158516,13.3404635 12.8315792,13.1096394 13.3026204,12.8393962 L13.3026204,14.2556783 L13.3026204,14.2556783 Z M13.2506808,17.4948855 C12.7526277,17.5645698 12.2381507,17.6023395 11.7137526,17.6060505 L11.7137526,16.1382268 C11.8468947,16.0933649 11.9778691,16.0458641 12.1068427,15.9961368 C12.4941803,15.9817876 12.8760988,15.9502853 13.2506808,15.9021248 L13.2506808,17.4948855 L13.2506808,17.4948855 Z M10.8505383,11.5878 L10.8505383,9.98638032 C11.372602,9.98291673 11.8867456,9.94819827 12.3875499,9.88379182 L12.3875499,11.476635 C11.8894134,11.5463193 11.3749364,11.584089 10.8505383,11.5878 L10.8505383,11.5878 L10.8505383,11.5878 Z M7.4654832,12.9439283 C5.78782874,12.9439283 4.21692739,12.5526311 3.04234795,11.842137 C1.93571572,11.1728014 1.32633024,10.3057008 1.32633024,9.40050681 C1.32633024,8.52362747 1.89978705,7.68294424 2.9417182,7.02265761 L2.9417182,8.01885266 C2.9417182,9.24054346 3.70153189,10.3729847 5.08120716,11.2075379 C6.39293524,12.0010057 8.12776569,12.4379858 9.96617692,12.4379858 C10.2026274,12.4379858 10.4372334,12.4304693 10.6695524,12.416166 C9.71364345,12.7601748 8.61468387,12.9439283 7.4654832,12.9439283 L7.4654832,12.9439283 L7.4654832,12.9439283 Z M11.4321283,15.1882936 C10.9475811,15.3545463 10.4324371,15.4849261 9.8950333,15.5771238 L9.8950333,13.9889812 C10.4271014,13.9054425 10.9414117,13.7872678 11.4321283,13.6374259 L11.4321283,15.1882936 L11.4321283,15.1882936 Z M11.3802721,17.6037415 C10.8550403,17.5930208 10.3403965,17.5487362 9.84326046,17.4717124 L9.84326046,16.5887421 C10.3749951,16.5075949 10.8891387,16.3914818 11.3802721,16.2443614 L11.3802721,17.6037415 L11.3802721,17.6037415 Z M9.5615528,15.6289953 C9.0634997,15.6987621 8.54902265,15.7364493 8.02462457,15.7402428 L8.02462457,14.1388231 C8.54668828,14.1353595 9.06074848,14.100641 9.5615528,14.0362346 L9.5615528,15.6289953 L9.5615528,15.6289953 Z M9.50977996,17.4146455 C8.97104222,17.3137888 8.45548137,17.1745026 7.97276835,16.9985188 L7.97276835,16.7305847 C8.49458196,16.7291827 9.00872552,16.6965259 9.50977996,16.6342636 L9.50977996,17.4146455 L9.50977996,17.4146455 Z M7.69114407,15.7378513 C7.16591228,15.7272131 6.65126852,15.682846 6.15413246,15.6058222 L6.15413246,14.0142985 C6.65426985,14.0853847 7.16841339,14.1265356 7.69114407,14.1364316 L7.69114407,15.7378513 L7.69114407,15.7378513 Z M5.82065196,15.5487552 C5.28191422,15.4478985 4.76635337,15.3086949 4.28364035,15.1327111 L4.28364035,13.5884407 C4.77277287,13.7465293 5.28791687,13.870889 5.82065196,13.9620146 L5.82065196,15.5487552 L5.82065196,15.5487552 Z M3.95015985,15.0024962 C3.59150159,14.8543037 3.25276876,14.6857419 2.93963059,14.4963984 C2.7506305,14.3820172 2.57605348,14.2620283 2.41314824,14.1380809 L2.41314824,12.7467862 C2.41464891,12.7477758 2.41614957,12.7486829 2.41773361,12.7496725 C2.88477304,13.0322032 3.39941683,13.2744902 3.95015985,13.474142 L3.95015985,15.0024962 L3.95015985,15.0024962 Z M2.07966774,13.8623949 C1.37794141,13.2259998 1.00044149,12.4935311 1.00044149,11.7372296 L1.00044149,11.5957168 C1.29790609,11.9307788 1.65889874,12.2446468 2.07966774,12.5318781 L2.07966774,13.8623949 L2.07966774,13.8623949 Z M3.82635522,7.44335653 C4.12381983,7.77833603 4.48489583,8.09228653 4.90558148,8.37951784 L4.90558148,9.70995214 C4.20385515,9.07363954 3.82635522,8.34108839 3.82635522,7.58486929 L3.82635522,7.44335653 L3.82635522,7.44335653 Z M6.77607359,9.32178167 L6.77607359,10.8501359 C6.4174987,10.7019434 6.0786825,10.5333816 5.76562767,10.3439557 C5.57654424,10.2296569 5.40205057,10.1096679 5.23906198,9.98572059 L5.23906198,8.59442589 C5.24064602,8.59533304 5.2420633,8.59632262 5.24364733,8.59722977 C5.71068676,8.87976047 6.22541391,9.12204746 6.77607359,9.32178167 L6.77607359,9.32178167 L6.77607359,9.32178167 Z M8.6465657,9.80957184 L8.6465657,11.396395 C8.10791133,11.2955382 7.59226711,11.1562521 7.10955409,10.9802683 L7.10955409,9.43599798 C7.59876998,9.59408652 8.11383061,9.71852867 8.6465657,9.80957184 L8.6465657,9.80957184 L8.6465657,9.80957184 Z M10.5170578,9.98398879 L10.5170578,11.585491 C9.99190939,11.5747703 9.47718224,11.5304857 8.9800462,11.4533794 L8.9800462,9.86193817 C9.48018357,9.93302441 9.99432713,9.9740928 10.5170578,9.98398879 L10.5170578,9.98398879 L10.5170578,9.98398879 Z M14.5915225,10.91413 L14.5915225,9.37695186 C15.1417653,9.18802078 15.6574929,8.95719664 16.1285341,8.68703594 L16.1285341,10.1032356 C16.0119827,10.1855373 15.8909293,10.2661896 15.7622892,10.3439557 C15.4030473,10.5613377 15.0099572,10.7512584 14.5915225,10.91413 L14.5915225,10.91413 L14.5915225,10.91413 Z M12.7210304,11.424681 L12.7210304,9.83653845 C13.2530985,9.75308219 13.7674088,9.6349075 14.258042,9.48506563 L14.258042,11.0359333 C13.7734949,11.2021035 13.2584342,11.3324833 12.7210304,11.424681 L12.7210304,11.424681 L12.7210304,11.424681 Z M13.6361009,12.6383426 C13.9398183,12.4427317 14.2147729,12.2337612 14.459631,12.0134104 C14.5988591,11.9677238 14.7352526,11.9187386 14.8701455,11.8677743 C14.8262094,12.6329822 14.3971034,13.3692444 13.6361009,14.0008564 L13.6361009,12.6383426 L13.6361009,12.6383426 Z M17.7015616,7.44335653 L17.7015616,7.58486929 C17.7015616,8.39667089 17.2662862,9.18101112 16.4620146,9.84841363 L16.4620146,8.48589981 C16.9519808,8.17038243 17.366914,7.82014661 17.7015616,7.44335653 L17.7015616,7.44335653 L17.7015616,7.44335653 Z M6.22283344,2.48706686 C7.42875555,1.75761384 9.0414993,1.35587522 10.7639206,1.35587522 C12.4864175,1.35587522 14.0992371,1.75761384 15.3050834,2.48706686 C16.4412452,3.17426317 17.0669673,4.06457648 17.0669673,4.99384989 C17.0669673,5.9231233 16.4412452,6.81343661 15.3050834,7.50063292 C14.0992371,8.23008596 12.4864175,8.63182456 10.7639206,8.63182456 C9.0414993,8.63182456 7.42875555,8.23008596 6.22283344,7.50063292 C5.08667168,6.81343661 4.46094951,5.9231233 4.46094951,4.99384989 C4.46094951,4.06457648 5.08667168,3.17426317 6.22283344,2.48706686 L6.22283344,2.48706686 L6.22283344,2.48706686 Z M18.5566056,8.55360491 C18.6524813,8.23858235 18.7020031,7.91465338 18.7020031,7.58486929 L18.7020031,4.99384989 C18.7020031,3.61319339 17.8433742,2.33347607 16.2842695,1.39047003 C14.8019487,0.493810245 12.8415002,0 10.7639167,0 C8.68641661,0 6.72596815,0.493810245 5.24364733,1.39047003 C3.74673676,2.29587127 2.89144265,3.51167696 2.82591374,4.82916401 L2.82591374,5.31423281 C2.68668563,5.38762811 2.54962513,5.46300261 2.41773361,5.54283031 C0.920823022,6.44823158 0.0655289174,7.66411972 0,8.98160678 L0,11.7372296 C0,13.1178861 0.858628909,14.3976034 2.41773361,15.3406919 C3.17440085,15.7983818 4.05620665,16.1504319 5.01412939,16.386039 C5.32693409,16.6803625 5.69176176,16.9554712 6.10686161,17.2065821 C7.58909904,18.1031594 9.54963089,18.5969697 11.627131,18.5969697 C13.7047145,18.5969697 15.665163,18.1031594 17.1474838,17.2065821 C18.7065051,16.2634936 19.5652174,14.9837763 19.5652174,13.6031198 L19.5652174,11.0121004 C19.5652174,10.1310268 19.2149795,9.29126901 18.5566056,8.55360491 L18.5566056,8.55360491 L18.5566056,8.55360491 Z" id="Shape"></path>
            </g>
        </g>
    </g>
</svg>