<?xml version="1.0" encoding="UTF-8"?>
<svg width="107px" height="112px" viewBox="0 0 107 112" version="1.1" xmlns="http://www.w3.org/2000/svg" xmlns:xlink="http://www.w3.org/1999/xlink">
    <!-- Generator: Sketch 46.2 (44496) - http://www.bohemiancoding.com/sketch -->
    <title>illustration</title>
    <desc>Created with Sketch.</desc>
    <defs></defs>
    <g id="Page-1" stroke="none" stroke-width="1" fill="none" fill-rule="evenodd">
        <g id="Artboard-Copy" transform="translate(-1007.000000, -546.000000)">
            <g id="Access-Tokens-Modal">
                <g id="Empty-state" transform="translate(760.000000, 437.000000)">
                    <g id="illustration" transform="translate(248.000000, 110.000000)">
                        <rect id="Rectangle-4" fill="#D8D8D8" transform="translate(70.426829, 29.724372) rotate(46.000000) translate(-70.426829, -29.724372) " x="69.1463415" y="22.0499531" width="2.56097561" height="15.3488372" rx="1.2804878"></rect>
                        <rect id="Rectangle-4-Copy" fill="#D8D8D8" transform="translate(33.898366, 34.509280) rotate(-60.000000) translate(-33.898366, -34.509280) " x="32.6178784" y="28.1139311" width="2.56097561" height="12.7906977" rx="1.2804878"></rect>
                        <rect id="Rectangle-4-Copy-2" fill="#D8D8D8" x="52.5" y="57.5581395" width="2.56097561" height="23.0232558" rx="1.2804878"></rect>
                        <g id="Group-2-Copy-3" transform="translate(74.268293, 0.000000)" stroke-width="1.02325581" stroke="#FFFFFF">
                            <polygon id="Polygon" fill="#2A98CB" points="15.3658537 0 30.4959801 8.63372093 30.4959801 25.9011628 15.3658537 34.5348837 0.235727242 25.9011628 0.235727242 8.63372093"></polygon>
                            <path d="M15.3705472,34.3429939 C15.4065541,23.1506744 15.4245575,17.5545147 15.4245575,17.5545147" id="Path-4"></path>
                            <polyline id="Path-3" points="0.395494896 8.63403184 15.4685125 17.4754833 30.5415301 8.63403184"></polyline>
                        </g>
                        <g id="Group-2-Copy-5" transform="translate(0.000000, 6.395349)" stroke-width="1.02325581" stroke="#FFFFFF">
                            <polygon id="Polygon" fill="#2A98CB" points="15.3658537 0 30.4959801 8.63372093 30.4959801 25.9011628 15.3658537 34.5348837 0.235727242 25.9011628 0.235727242 8.63372093"></polygon>
                            <path d="M15.3705472,34.3429939 C15.4065541,23.1506744 15.4245575,17.5545147 15.4245575,17.5545147" id="Path-4"></path>
                            <polyline id="Path-3" points="0.395494896 8.63403184 15.4685125 17.4754833 30.5415301 8.63403184"></polyline>
                        </g>
                        <g id="Group-2-Copy-4" transform="translate(38.414634, 75.465116)" stroke-width="1.02325581" stroke="#FFFFFF">
                            <polygon id="Polygon" fill="#2A98CB" points="15.3658537 0 30.4959801 8.63372093 30.4959801 25.9011628 15.3658537 34.5348837 0.235727242 25.9011628 0.235727242 8.63372093"></polygon>
                            <path d="M15.3705472,34.3429939 C15.4065541,23.1506744 15.4245575,17.5545147 15.4245575,17.5545147" id="Path-4"></path>
                            <polyline id="Path-3" points="0.395494896 8.63403184 15.4685125 17.4754833 30.5415301 8.63403184"></polyline>
                        </g>
                        <ellipse id="Oval-Copy" fill="#2A98CB" cx="53.7804878" cy="44.7674419" rx="19.2073171" ry="19.1860465"></ellipse>
                        <g id="Group-2" transform="translate(40.975610, 35.813953)" fill="#FFFFFF">
                            <path d="M3.14082909,8.92997792 L7.68613705,4.38466995 C8.2012005,3.86960651 8.2012005,3.03452367 7.68613705,2.51946023 L7.68613705,2.51946023 L7.68613705,2.51946023 C7.17107361,2.00439678 6.33599077,2.00439678 5.82092733,2.51946023 L5.82092733,2.51946023 L0.389823187,7.95056436 C0.120384846,8.2200027 -0.00810577179,8.57701473 0.00435133358,8.92997792 C-0.00810577179,9.2829411 0.120384846,9.63995313 0.389823187,9.90939147 L5.82092733,15.3404956 C6.33599077,15.8555591 7.17107361,15.8555591 7.68613705,15.3404956 C8.2012005,14.8254322 8.2012005,13.9903493 7.68613705,13.4752859 L3.14082909,8.92997792 Z" id="Combined-Shape"></path>
                            <path d="M20.335951,8.92997792 L24.881259,4.38466995 C25.3963224,3.86960651 25.3963224,3.03452367 24.881259,2.51946023 L24.881259,2.51946023 L24.881259,2.51946023 C24.3661956,2.00439678 23.5311127,2.00439678 23.0160493,2.51946023 L23.0160493,2.51946023 L17.5849451,7.95056436 C17.3155068,8.2200027 17.1870162,8.57701473 17.1994733,8.92997792 C17.1870162,9.2829411 17.3155068,9.63995313 17.5849451,9.90939147 L23.0160493,15.3404956 L23.0160493,15.3404956 C23.5311127,15.8555591 24.3661956,15.8555591 24.881259,15.3404956 C25.3963224,14.8254322 25.3963224,13.9903493 24.881259,13.4752859 L20.335951,8.92997792 Z" id="Combined-Shape" transform="translate(21.233102, 8.929978) scale(-1, 1) translate(-21.233102, -8.929978) "></path>
                            <rect id="Rectangle-21" transform="translate(12.648301, 8.953488) rotate(15.000000) translate(-12.648301, -8.953488) " x="11.3293985" y="0.35470002" width="2.63780489" height="17.1975767" rx="1.31890245"></rect>
                        </g>
                    </g>
                </g>
            </g>
        </g>
    </g>
</svg>