<?xml version="1.0" encoding="UTF-8"?>
<svg width="139px" height="108px" viewBox="0 0 139 108" version="1.1" xmlns="http://www.w3.org/2000/svg" xmlns:xlink="http://www.w3.org/1999/xlink">
    <!-- Generator: Sketch 45.2 (43514) - http://www.bohemiancoding.com/sketch -->
    <title>illustration</title>
    <desc>Created with Sketch.</desc>
    <defs>
        <rect id="path-1" x="0" y="-2.13162821e-14" width="94.6637931" height="16.8" rx="4"></rect>
        <rect id="path-2" x="0" y="0" width="94.6637931" height="16.8" rx="4"></rect>
        <rect id="path-3" x="0" y="0" width="94.6637931" height="16.8" rx="4"></rect>
        <rect id="path-4" x="0" y="0" width="94.6637931" height="16.8" rx="4"></rect>
        <rect id="path-5" x="0" y="0" width="94.6637931" height="16.8" rx="4"></rect>
    </defs>
    <g id="Page-1" stroke="none" stroke-width="1" fill="none" fill-rule="evenodd">
        <g id="Artboard-Copy" transform="translate(-991.000000, -558.000000)">
            <g id="Access-Tokens-Modal">
                <g id="Empty-state" transform="translate(760.000000, 437.000000)">
                    <g id="illustration" transform="translate(231.000000, 121.000000)">
                        <g id="coin" transform="translate(32.353448, 28.000000)">
                            <g id="Rectangle-12">
                                <use fill="#F5F8FC" fill-rule="evenodd" xlink:href="#path-1"></use>
                                <rect stroke="#323232" stroke-width="4" x="2" y="2" width="90.6637931" height="12.8" rx="4"></rect>
                            </g>
                            <path d="M8.70661312,1.8 L8.70661312,13.7466668" id="Path-19" stroke="#323232" stroke-width="2"></path>
                            <path d="M15.6719036,1.8 L15.6719036,13.7466668" id="Path-19-Copy" stroke="#323232" stroke-width="2"></path>
                            <path d="M22.6371941,1.8 L22.6371941,13.7466668" id="Path-19-Copy-2" stroke="#323232" stroke-width="2"></path>
                            <path d="M29.6024846,1.8 L29.6024846,13.7466668" id="Path-19-Copy-3" stroke="#323232" stroke-width="2"></path>
                            <path d="M36.5677751,1.8 L36.5677751,13.7466668" id="Path-19-Copy-4" stroke="#323232" stroke-width="2"></path>
                            <path d="M43.5330656,1.8 L43.5330656,13.7466668" id="Path-19-Copy-5" stroke="#323232" stroke-width="2"></path>
                            <path d="M50.4983561,1.8 L50.4983561,13.7466668" id="Path-19-Copy-6" stroke="#323232" stroke-width="2"></path>
                            <path d="M57.4636466,1.8 L57.4636466,13.7466668" id="Path-19-Copy-7" stroke="#323232" stroke-width="2"></path>
                            <path d="M64.4289371,1.8 L64.4289371,13.7466668" id="Path-19-Copy-8" stroke="#323232" stroke-width="2"></path>
                            <path d="M71.3942276,1.8 L71.3942276,13.7466668" id="Path-19-Copy-9" stroke="#323232" stroke-width="2"></path>
                            <path d="M78.3595181,1.8 L78.3595181,13.7466668" id="Path-19-Copy-10" stroke="#323232" stroke-width="2"></path>
                            <path d="M85.3248086,1.8 L85.3248086,13.7466668" id="Path-19-Copy-11" stroke="#323232" stroke-width="2"></path>
                        </g>
                        <g id="coin-copy" transform="translate(44.336207, 43.800000)">
                            <g id="Rectangle-12">
                                <use fill="#F5F8FC" fill-rule="evenodd" xlink:href="#path-2"></use>
                                <rect stroke="#323232" stroke-width="4" x="2" y="2" width="90.6637931" height="12.8" rx="4"></rect>
                            </g>
                            <path d="M8.70661312,2.8 L8.70661312,14.7466668" id="Path-19" stroke="#323232" stroke-width="2"></path>
                            <path d="M15.6719036,2.8 L15.6719036,14.7466668" id="Path-19-Copy" stroke="#323232" stroke-width="2"></path>
                            <path d="M22.6371941,2.8 L22.6371941,14.7466668" id="Path-19-Copy-2" stroke="#323232" stroke-width="2"></path>
                            <path d="M29.6024846,2.8 L29.6024846,14.7466668" id="Path-19-Copy-3" stroke="#323232" stroke-width="2"></path>
                            <path d="M36.5677751,2.8 L36.5677751,14.7466668" id="Path-19-Copy-4" stroke="#323232" stroke-width="2"></path>
                            <path d="M43.5330656,2.8 L43.5330656,14.7466668" id="Path-19-Copy-5" stroke="#323232" stroke-width="2"></path>
                            <path d="M50.4983561,2.8 L50.4983561,14.7466668" id="Path-19-Copy-6" stroke="#323232" stroke-width="2"></path>
                            <path d="M57.4636466,2.8 L57.4636466,14.7466668" id="Path-19-Copy-7" stroke="#323232" stroke-width="2"></path>
                            <path d="M64.4289371,2.8 L64.4289371,14.7466668" id="Path-19-Copy-8" stroke="#323232" stroke-width="2"></path>
                            <path d="M71.3942276,2.8 L71.3942276,14.7466668" id="Path-19-Copy-9" stroke="#323232" stroke-width="2"></path>
                            <path d="M78.3595181,2.8 L78.3595181,14.7466668" id="Path-19-Copy-10" stroke="#323232" stroke-width="2"></path>
                            <path d="M85.3248086,2.8 L85.3248086,14.7466668" id="Path-19-Copy-11" stroke="#323232" stroke-width="2"></path>
                        </g>
                        <g id="coin-copy-2" transform="translate(32.353448, 59.600000)">
                            <g id="Rectangle-12">
                                <use fill="#F5F8FC" fill-rule="evenodd" xlink:href="#path-3"></use>
                                <rect stroke="#323232" stroke-width="4" x="2" y="2" width="90.6637931" height="12.8" rx="4"></rect>
                            </g>
                            <path d="M8.70661312,2.8 L8.70661312,14.7466668" id="Path-19" stroke="#323232" stroke-width="2"></path>
                            <path d="M15.6719036,2.8 L15.6719036,14.7466668" id="Path-19-Copy" stroke="#323232" stroke-width="2"></path>
                            <path d="M22.6371941,2.8 L22.6371941,14.7466668" id="Path-19-Copy-2" stroke="#323232" stroke-width="2"></path>
                            <path d="M29.6024846,2.8 L29.6024846,14.7466668" id="Path-19-Copy-3" stroke="#323232" stroke-width="2"></path>
                            <path d="M36.5677751,2.8 L36.5677751,14.7466668" id="Path-19-Copy-4" stroke="#323232" stroke-width="2"></path>
                            <path d="M43.5330656,2.8 L43.5330656,14.7466668" id="Path-19-Copy-5" stroke="#323232" stroke-width="2"></path>
                            <path d="M50.4983561,2.8 L50.4983561,14.7466668" id="Path-19-Copy-6" stroke="#323232" stroke-width="2"></path>
                            <path d="M57.4636466,2.8 L57.4636466,14.7466668" id="Path-19-Copy-7" stroke="#323232" stroke-width="2"></path>
                            <path d="M64.4289371,2.8 L64.4289371,14.7466668" id="Path-19-Copy-8" stroke="#323232" stroke-width="2"></path>
                            <path d="M71.3942276,2.8 L71.3942276,14.7466668" id="Path-19-Copy-9" stroke="#323232" stroke-width="2"></path>
                            <path d="M78.3595181,2.8 L78.3595181,14.7466668" id="Path-19-Copy-10" stroke="#323232" stroke-width="2"></path>
                            <path d="M85.3248086,2.8 L85.3248086,14.7466668" id="Path-19-Copy-11" stroke="#323232" stroke-width="2"></path>
                        </g>
                        <g id="coin-copy-3" transform="translate(44.336207, 75.400000)">
                            <g id="Rectangle-12">
                                <use fill="#F5F8FC" fill-rule="evenodd" xlink:href="#path-4"></use>
                                <rect stroke="#323232" stroke-width="4" x="2" y="2" width="90.6637931" height="12.8" rx="4"></rect>
                            </g>
                            <path d="M8.70661312,2.8 L8.70661312,14.7466668" id="Path-19" stroke="#323232" stroke-width="2"></path>
                            <path d="M15.6719036,2.8 L15.6719036,14.7466668" id="Path-19-Copy" stroke="#323232" stroke-width="2"></path>
                            <path d="M22.6371941,2.8 L22.6371941,14.7466668" id="Path-19-Copy-2" stroke="#323232" stroke-width="2"></path>
                            <path d="M29.6024846,2.8 L29.6024846,14.7466668" id="Path-19-Copy-3" stroke="#323232" stroke-width="2"></path>
                            <path d="M36.5677751,2.8 L36.5677751,14.7466668" id="Path-19-Copy-4" stroke="#323232" stroke-width="2"></path>
                            <path d="M43.5330656,2.8 L43.5330656,14.7466668" id="Path-19-Copy-5" stroke="#323232" stroke-width="2"></path>
                            <path d="M50.4983561,2.8 L50.4983561,14.7466668" id="Path-19-Copy-6" stroke="#323232" stroke-width="2"></path>
                            <path d="M57.4636466,2.8 L57.4636466,14.7466668" id="Path-19-Copy-7" stroke="#323232" stroke-width="2"></path>
                            <path d="M64.4289371,2.8 L64.4289371,14.7466668" id="Path-19-Copy-8" stroke="#323232" stroke-width="2"></path>
                            <path d="M71.3942276,2.8 L71.3942276,14.7466668" id="Path-19-Copy-9" stroke="#323232" stroke-width="2"></path>
                            <path d="M78.3595181,2.8 L78.3595181,14.7466668" id="Path-19-Copy-10" stroke="#323232" stroke-width="2"></path>
                            <path d="M85.3248086,2.8 L85.3248086,14.7466668" id="Path-19-Copy-11" stroke="#323232" stroke-width="2"></path>
                        </g>
                        <g id="coin-copy-4" transform="translate(32.353448, 91.200000)">
                            <g id="Rectangle-12">
                                <use fill="#F5F8FC" fill-rule="evenodd" xlink:href="#path-5"></use>
                                <rect stroke="#323232" stroke-width="4" x="2" y="2" width="90.6637931" height="12.8" rx="4"></rect>
                            </g>
                            <path d="M8.70661312,2.8 L8.70661312,14.7466668" id="Path-19" stroke="#323232" stroke-width="2"></path>
                            <path d="M15.6719036,2.8 L15.6719036,14.7466668" id="Path-19-Copy" stroke="#323232" stroke-width="2"></path>
                            <path d="M22.6371941,2.8 L22.6371941,14.7466668" id="Path-19-Copy-2" stroke="#323232" stroke-width="2"></path>
                            <path d="M29.6024846,2.8 L29.6024846,14.7466668" id="Path-19-Copy-3" stroke="#323232" stroke-width="2"></path>
                            <path d="M36.5677751,2.8 L36.5677751,14.7466668" id="Path-19-Copy-4" stroke="#323232" stroke-width="2"></path>
                            <path d="M43.5330656,2.8 L43.5330656,14.7466668" id="Path-19-Copy-5" stroke="#323232" stroke-width="2"></path>
                            <path d="M50.4983561,2.8 L50.4983561,14.7466668" id="Path-19-Copy-6" stroke="#323232" stroke-width="2"></path>
                            <path d="M57.4636466,2.8 L57.4636466,14.7466668" id="Path-19-Copy-7" stroke="#323232" stroke-width="2"></path>
                            <path d="M64.4289371,2.8 L64.4289371,14.7466668" id="Path-19-Copy-8" stroke="#323232" stroke-width="2"></path>
                            <path d="M71.3942276,2.8 L71.3942276,14.7466668" id="Path-19-Copy-9" stroke="#323232" stroke-width="2"></path>
                            <path d="M78.3595181,2.8 L78.3595181,14.7466668" id="Path-19-Copy-10" stroke="#323232" stroke-width="2"></path>
                            <path d="M85.3248086,2.8 L85.3248086,14.7466668" id="Path-19-Copy-11" stroke="#323232" stroke-width="2"></path>
                        </g>
                        <g id="Group-19">
                            <polygon id="Path-20" fill="#2A98CB" points="25.6704859 2.86054688 14.1066558 12.9585938 5.9656351 29.1738281 2.98632812 57.6257812 4.14481748 73.4742187 11.7522309 90.4113281 23.1849997 103.947656 34.2327755 104.391797 45.3882088 104.391797 57.0117187 96.3023437 64.6963648 84.0421875 68.4655509 64.659375 68.4655509 38.2148438 62.2799199 19.1308594 47.8970989 2.86054688"></polygon>
                            <path d="M29.9568966,108 L41.9396552,108 C58.7155172,108 71.8965517,84.24 71.8965517,54 C71.8965517,23.76 58.7155172,0 41.9396552,0 L29.9568966,0 C13.1810345,0 0,23.76 0,54 C0,84.24 13.1810345,108 29.9568966,108 Z M49.3689655,99.48 L46.2534483,99.48 C46.7327586,98.88 47.212069,98.4 47.6913793,97.8 L51.5258621,97.8 C50.8068966,98.4 50.2077586,99 49.3689655,99.48 Z M54.4017241,94.8 L49.8482759,94.8 C50.4474138,93.72 51.1663793,92.64 51.7655172,91.56 L56.7982759,91.56 C55.9594828,92.76 55.1206897,93.84 54.4017241,94.8 Z M58.3560345,88.56 L53.0836207,88.56 C53.8025862,87.12 54.4017241,85.56 54.8810345,84 L60.3931034,84 C59.7939655,85.56 59.075,87.12 58.3560345,88.56 Z M61.5913793,81 L55.9594828,81 C56.5586207,79.2 57.037931,77.28 57.5172414,75.36 L63.2689655,75.36 C62.7896552,77.28 62.1905172,79.2 61.5913793,81 Z M63.987931,72.36 L58.1163793,72.36 C58.4758621,70.2 58.8353448,68.04 59.1948276,65.76 L65.0663793,65.76 C64.8267241,68.04 64.4672414,70.2 63.987931,72.36 Z M65.4258621,62.76 L59.4344828,62.76 C59.6741379,60.36 59.7939655,57.96 59.7939655,55.44 L65.7853448,55.44 C65.9051724,57.96 65.6655172,60.36 65.4258621,62.76 Z M65.9051724,52.56 L59.9137931,52.56 C59.9137931,50.04 59.7939655,47.64 59.5543103,45.24 L65.5456897,45.24 C65.6655172,47.64 65.9051724,50.04 65.9051724,52.56 Z M65.1862069,42.24 L59.3146552,42.24 C59.075,39.96 58.7155172,37.8 58.2362069,35.64 L64.1077586,35.64 C64.4672414,37.8 64.8267241,39.96 65.1862069,42.24 Z M63.2689655,32.64 L57.5172414,32.64 C57.037931,30.72 56.5586207,28.8 55.9594828,27 L61.5913793,27 C62.1905172,28.8 62.7896552,30.72 63.2689655,32.64 Z M60.512931,24 L55.0008621,24 C54.4017241,22.44 53.8025862,20.88 53.2034483,19.44 L58.4758621,19.44 C59.075,20.88 59.7939655,22.44 60.512931,24 Z M56.6784483,16.44 L51.6456897,16.44 C51.0465517,15.36 50.4474138,14.28 49.7284483,13.2 L54.2818966,13.2 C55.1206897,14.16 55.9594828,15.24 56.6784483,16.44 Z M49.3689655,8.52 C50.087931,9 50.8068966,9.6 51.5258621,10.2 L47.6913793,10.2 C47.212069,9.6 46.7327586,9 46.2534483,8.52 L49.3689655,8.52 Z M29.9568966,6 C42.8982759,6 53.9224138,27.96 53.9224138,54 C53.9224138,80.04 42.8982759,102 29.9568966,102 C17.0155172,102 5.99137931,80.04 5.99137931,54 C5.99137931,27.96 17.0155172,6 29.9568966,6 Z" id="Shape" fill="#323232" fill-rule="nonzero"></path>
                            <path d="M39.9801107,50.649505 L38.5469071,49.580198 C38.2056682,49.3425743 37.932677,48.8673267 37.7620575,48.2732673 C37.625562,47.5009901 37.625562,46.7881188 37.7620575,46.1940594 L38.3421638,43.6990099 C38.6492788,42.8673267 38.5469071,41.7980198 38.1715443,41.1445545 L36.5677212,38.3524752 C36.1923584,37.6990099 35.5781283,37.580198 35.1345176,38.0554455 L33.6671901,39.0653465 C32.8823405,39.6 32.0292432,38.9465347 31.7221281,37.639604 L31.107898,35.2039604 C31.0055263,34.2534653 30.5277918,33.6 29.9818095,33.6 L27.6955085,33.6 C27.1495262,33.6 26.6717916,34.2534653 26.56942,35.1445545 L25.9551898,37.639604 C25.6139509,38.9465347 24.7608535,39.5405941 24.0101278,39.0653465 L22.5769242,38.0554455 C22.1333136,37.5207921 21.5190835,37.639604 21.1095967,38.3524752 L19.5057737,41.1445545 C19.1304108,41.7980198 19.062163,42.8673267 19.3351542,43.639604 L19.9152604,46.1940594 C20.2223755,47.560396 19.8470126,49.0455446 19.0962869,49.580198 L17.6972072,50.649505 C17.1512249,50.8277228 16.7758621,51.6594059 16.7758621,52.609901 L16.7758621,56.590099 C16.7758621,57.5405941 17.1512249,58.3722772 17.6630833,58.550495 L19.0962869,59.619802 C19.8470126,60.2138614 20.1882516,61.6990099 19.9152604,63.0059406 L19.3351542,65.5009901 C19.0280391,66.3326733 19.0962869,67.3425743 19.5057737,68.0554455 L21.1095967,70.8475248 C21.4849596,71.5009901 22.0991897,71.619802 22.5428003,71.1445545 L24.0101278,70.1346535 C24.7949774,69.6 25.6480748,70.2534653 25.9551898,71.560396 L26.56942,73.9960396 C26.6717916,74.9465347 27.1495262,75.6 27.6955085,75.6 L29.9818095,75.6 C30.5277918,75.6 31.0055263,74.9465347 31.107898,74.0554455 L31.7221281,71.560396 C32.0633671,70.2534653 32.9164644,69.6594059 33.6671901,70.1346535 L35.1003937,71.1445545 C35.5440044,71.6792079 36.1582345,71.560396 36.5677212,70.8475248 L38.1715443,68.0554455 C38.5469071,67.4019802 38.6151549,66.3326733 38.3421638,65.560396 L37.7620575,63.0059406 C37.4549425,61.639604 37.8303053,60.1544554 38.581031,59.619802 L39.9801107,58.550495 C40.526093,58.3722772 40.9014559,57.5405941 40.9014559,56.590099 L40.9014559,52.609901 C40.9014559,51.6594059 40.526093,50.8277228 39.9801107,50.649505 Z M28.821597,63.1841584 C26.0916854,63.1841584 23.8736322,59.3227723 23.8736322,54.570297 C23.8736322,49.8178218 26.0916854,45.9564356 28.821597,45.9564356 C31.5515086,45.9564356 33.7695618,49.8178218 33.7695618,54.570297 C33.7695618,59.3227723 31.5515086,63.1841584 28.821597,63.1841584 Z" id="gear" fill="#F5F8FC" fill-rule="nonzero"></path>
                        </g>
                    </g>
                </g>
            </g>
        </g>
    </g>
</svg>